font.ufo
<glyph name="asterisk" format="2">
	<unicode hex="002A"/>
	<advance width="600"/>
	<outline>
		<contour>
			<point x="177" y="124" type="line"/>
			<point x="300" y="292" type="line"/>
			<point x="423" y="124" type="line"/>
			<point x="452" y="144" type="line"/>
			<point x="336" y="315" type="line"/>
			<point x="504" y="386" type="line"/>
			<point x="493" y="416" type="line"/>
			<point x="322" y="355" type="line"/>
			<point x="316" y="550" type="line"/>
			<point x="284" y="550" type="line"/>
			<point x="278" y="355" type="line"/>
			<point x="107" y="416" type="line"/>
			<point x="96" y="386" type="line"/>
			<point x="264" y="315" type="line"/>
			<point x="148" y="144" type="line"/>
		</contour>
	</outline>
</glyph>
<glyph name="one" format="2">
	<unicode hex="0031"/>
	<advance width="600"/>
	<outline>
		<contour>
			<point x="108" y="0" type="line"/>
			<point x="523" y="0" type="line"/>
			<point x="523" y="39" type="line"/>
			<point x="343" y="39" type="line"/>
			<point x="343" y="639" type="line"/>
			<point x="310" y="639" type="line"/>
			<point x="273" y="622"/>
			<point x="224" y="608"/>
			<point x="156" y="599" type="curve"/>
			<point x="156" y="569" type="line"/>
			<point x="299" y="569" type="line"/>
			<point x="299" y="39" type="line"/>
			<point x="108" y="39" type="line"/>
		</contour>
	</outline>
</glyph>
<glyph name="eight" format="2">
	<unicode hex="0038"/>
	<advance width="600"/>
	<outline>
		<contour>
			<point x="304" y="-12" type="curve" smooth="yes"/>
			<point x="445" y="-12"/>
			<point x="526" y="62"/>
			<point x="526" y="155" type="curve" smooth="yes"/>
			<point x="526" y="248"/>
			<point x="469" y="284"/>
			<point x="396" y="320" type="curve"/>
			<point x="396" y="324" type="line"/>
			<point x="452" y="364"/>
			<point x="498" y="423"/>
			<point x="498" y="484" type="curve" smooth="yes"/>
			<point x="498" y="580"/>
			<point x="429" y="651"/>
			<point x="305" y="651" type="curve" smooth="yes"/>
			<point x="199" y="651"/>
			<point x="120" y="587"/>
			<point x="120" y="495" type="curve" smooth="yes"/>
			<point x="120" y="427"/>
			<point x="167" y="377"/>
			<point x="220" y="347" type="curve"/>
			<point x="220" y="343" type="line"/>
			<point x="149" y="311"/>
			<point x="72" y="258"/>
			<point x="72" y="164" type="curve" smooth="yes"/>
			<point x="72" y="63"/>
			<point x="162" y="-12"/>
		</contour>
		<contour>
			<point x="357" y="335" type="curve"/>
			<point x="250" y="368"/>
			<point x="163" y="404"/>
			<point x="163" y="495" type="curve" smooth="yes"/>
			<point x="163" y="564"/>
			<point x="220" y="614"/>
			<point x="304" y="614" type="curve" smooth="yes"/>
			<point x="403" y="614"/>
			<point x="455" y="554"/>
			<point x="455" y="483" type="curve" smooth="yes"/>
			<point x="455" y="428"/>
			<point x="422" y="379"/>
		</contour>
		<contour>
			<point x="305" y="25" type="curve" smooth="yes"/>
			<point x="187" y="25"/>
			<point x="116" y="87"/>
			<point x="116" y="166" type="curve" smooth="yes"/>
			<point x="116" y="245"/>
			<point x="175" y="289"/>
			<point x="254" y="327" type="curve"/>
			<point x="377" y="287"/>
			<point x="481" y="263"/>
			<point x="481" y="156" type="curve" smooth="yes"/>
			<point x="481" y="83"/>
			<point x="420" y="25"/>
		</contour>
	</outline>
</glyph>
<glyph name="greater" format="2">
	<unicode hex="003E"/>
	<advance width="600"/>
	<outline>
		<contour>
			<point x="112" y="58" type="line"/>
			<point x="477" y="312" type="line"/>
			<point x="477" y="352" type="line"/>
			<point x="112" y="606" type="line"/>
			<point x="112" y="558" type="line"/>
			<point x="434" y="334" type="line"/>
			<point x="434" y="330" type="line"/>
			<point x="112" y="106" type="line"/>
		</contour>
	</outline>
</glyph>
<glyph name="B" format="2">
	<unicode hex="0042"/>
	<advance width="600"/>
	<outline>
		<contour>
			<point x="114" y="0" type="line"/>
			<point x="294" y="0" type="line" smooth="yes"/>
			<point x="446" y="0"/>
			<point x="538" y="65"/>
			<point x="538" y="192" type="curve" smooth="yes"/>
			<point x="538" y="283"/>
			<point x="478" y="337"/>
			<point x="380" y="351" type="curve"/>
			<point x="380" y="355" type="line"/>
			<point x="458" y="375"/>
			<point x="497" y="430"/>
			<point x="497" y="499" type="curve" smooth="yes"/>
			<point x="497" y="609"/>
			<point x="417" y="659"/>
			<point x="281" y="659" type="curve" smooth="yes"/>
			<point x="114" y="659" type="line"/>
		</contour>
		<contour>
			<point x="160" y="370" type="line"/>
			<point x="160" y="620" type="line"/>
			<point x="268" y="620" type="line" smooth="yes"/>
			<point x="392" y="620"/>
			<point x="451" y="585"/>
			<point x="451" y="497" type="curve" smooth="yes"/>
			<point x="451" y="413"/>
			<point x="398" y="370"/>
			<point x="263" y="370" type="curve" smooth="yes"/>
		</contour>
		<contour>
			<point x="160" y="39" type="line"/>
			<point x="160" y="330" type="line"/>
			<point x="282" y="330" type="line" smooth="yes"/>
			<point x="417" y="330"/>
			<point x="492" y="286"/>
			<point x="492" y="192" type="curve" smooth="yes"/>
			<point x="492" y="86"/>
			<point x="416" y="39"/>
			<point x="282" y="39" type="curve" smooth="yes"/>
		</contour>
	</outline>
	<anchor name="aboveUC" x="297" y="679"/>
	<anchor name="belowLC" x="306" y="-20"/>
</glyph>
<glyph name="E" format="2">
	<unicode hex="0045"/>
	<advance width="600"/>
	<outline>
		<contour>
			<point x="127" y="0" type="line"/>
			<point x="527" y="0" type="line"/>
			<point x="527" y="40" type="line"/>
			<point x="173" y="40" type="line"/>
			<point x="173" y="330" type="line"/>
			<point x="463" y="330" type="line"/>
			<point x="463" y="370" type="line"/>
			<point x="173" y="370" type="line"/>
			<point x="173" y="619" type="line"/>
			<point x="517" y="619" type="line"/>
			<point x="517" y="659" type="line"/>
			<point x="127" y="659" type="line"/>
		</contour>
	</outline>
	<anchor name="aboveUC" x="336" y="679"/>
	<anchor name="baseLC" x="329" y="0"/>
	<anchor name="belowLC" x="338" y="-20"/>
	<anchor name="ogonekCXT-ATH" x="338" y="0"/>
	<anchor name="ogonekUC" x="430" y="0"/>
</glyph>
<glyph name="F" format="2">
	<unicode hex="0046"/>
	<advance width="600"/>
	<outline>
		<contour>
			<point x="150" y="0" type="line"/>
			<point x="196" y="0" type="line"/>
			<point x="196" y="317" type="line"/>
			<point x="481" y="317" type="line"/>
			<point x="481" y="357" type="line"/>
			<point x="196" y="357" type="line"/>
			<point x="196" y="619" type="line"/>
			<point x="534" y="619" type="line"/>
			<point x="534" y="659" type="line"/>
			<point x="150" y="659" type="line"/>
		</contour>
	</outline>
	<anchor name="aboveUC" x="347" y="679"/>
	<anchor name="baseLC" x="166" y="0"/>
	<anchor name="belowLC" x="181" y="-20"/>
</glyph>
<glyph name="H" format="2">
	<unicode hex="0048"/>
	<advance width="600"/>
	<outline>
		<contour>
			<point x="89" y="0" type="line"/>
			<point x="135" y="0" type="line"/>
			<point x="135" y="330" type="line"/>
			<point x="465" y="330" type="line"/>
			<point x="465" y="0" type="line"/>
			<point x="511" y="0" type="line"/>
			<point x="511" y="659" type="line"/>
			<point x="465" y="659" type="line"/>
			<point x="465" y="370" type="line"/>
			<point x="135" y="370" type="line"/>
			<point x="135" y="659" type="line"/>
			<point x="89" y="659" type="line"/>
		</contour>
	</outline>
	<anchor name="aboveUC" x="300" y="679"/>
	<anchor name="baseLC" x="112" y="0"/>
	<anchor name="belowLC" x="300" y="-20"/>
</glyph>
<glyph name="I" format="2">
	<unicode hex="0049"/>
	<advance width="600"/>
	<outline>
		<contour>
			<point x="107" y="0" type="line"/>
			<point x="493" y="0" type="line"/>
			<point x="493" y="40" type="line"/>
			<point x="323" y="40" type="line"/>
			<point x="323" y="619" type="line"/>
			<point x="493" y="619" type="line"/>
			<point x="493" y="659" type="line"/>
			<point x="107" y="659" type="line"/>
			<point x="107" y="619" type="line"/>
			<point x="277" y="619" type="line"/>
			<point x="277" y="40" type="line"/>
			<point x="107" y="40" type="line"/>
		</contour>
	</outline>
	<anchor name="aboveUC" x="300" y="679"/>
	<anchor name="baseLC" x="300" y="0"/>
	<anchor name="belowLC" x="300" y="-20"/>
	<anchor name="ogonekUC" x="300" y="0"/>
</glyph>
<glyph name="K" format="2">
	<unicode hex="004B"/>
	<advance width="600"/>
	<outline>
		<contour>
			<point x="115" y="0" type="line"/>
			<point x="162" y="0" type="line"/>
			<point x="162" y="227" type="line"/>
			<point x="544" y="659" type="line"/>
			<point x="489" y="659" type="line"/>
			<point x="164" y="293" type="line"/>
			<point x="162" y="293" type="line"/>
			<point x="162" y="659" type="line"/>
			<point x="115" y="659" type="line"/>
		</contour>
		<contour>
			<point x="518" y="0" type="line"/>
			<point x="571" y="0" type="line"/>
			<point x="315" y="441" type="line"/>
			<point x="285" y="404" type="line"/>
		</contour>
	</outline>
	<anchor name="aboveUC" x="328" y="679"/>
	<anchor name="belowLC" x="346" y="-20"/>
</glyph>
<glyph name="L" format="2">
	<unicode hex="004C"/>
	<advance width="600"/>
	<outline>
		<contour>
			<point x="150" y="0" type="line"/>
			<point x="539" y="0" type="line"/>
			<point x="539" y="40" type="line"/>
			<point x="194" y="40" type="line"/>
			<point x="194" y="659" type="line"/>
			<point x="150" y="659" type="line"/>
		</contour>
	</outline>
	<anchor name="aboveUC" x="187" y="679"/>
	<anchor name="baseLC" x="357" y="0"/>
	<anchor name="belowLC" x="357" y="-20"/>
	<anchor name="center" x="175" y="332"/>
</glyph>
<glyph name="O" format="2">
	<unicode hex="004F"/>
	<advance width="600"/>
	<outline>
		<contour>
			<point x="300" y="-12" type="curve" smooth="yes"/>
			<point x="444" y="-12"/>
			<point x="546" y="122"/>
			<point x="546" y="332" type="curve" smooth="yes"/>
			<point x="546" y="541"/>
			<point x="444" y="671"/>
			<point x="300" y="671" type="curve" smooth="yes"/>
			<point x="156" y="671"/>
			<point x="54" y="541"/>
			<point x="54" y="332" type="curve" smooth="yes"/>
			<point x="54" y="122"/>
			<point x="156" y="-12"/>
		</contour>
		<contour>
			<point x="300" y="30" type="curve" smooth="yes"/>
			<point x="182" y="30"/>
			<point x="102" y="148"/>
			<point x="102" y="332" type="curve" smooth="yes"/>
			<point x="102" y="515"/>
			<point x="182" y="629"/>
			<point x="300" y="629" type="curve" smooth="yes"/>
			<point x="418" y="629"/>
			<point x="498" y="515"/>
			<point x="498" y="332" type="curve" smooth="yes"/>
			<point x="498" y="148"/>
			<point x="418" y="30"/>
		</contour>
	</outline>
	<anchor name="aboveUC" x="300" y="679"/>
	<anchor name="baseLC" x="300" y="0"/>
	<anchor name="belowLC" x="300" y="-20"/>
	<anchor name="hornLC" x="417" y="649"/>
	<anchor name="ogonekUC" x="300" y="0"/>
</glyph>
<glyph name="Z" format="2">
	<unicode hex="005A"/>
	<advance width="600"/>
	<outline>
		<contour>
			<point x="70" y="0" type="line"/>
			<point x="535" y="0" type="line"/>
			<point x="535" y="40" type="line"/>
			<point x="125" y="40" type="line"/>
			<point x="528" y="632" type="line"/>
			<point x="528" y="660" type="line"/>
			<point x="104" y="660" type="line"/>
			<point x="104" y="621" type="line"/>
			<point x="473" y="621" type="line"/>
			<point x="70" y="28" type="line"/>
		</contour>
	</outline>
	<anchor name="aboveUC" x="316" y="679"/>
	<anchor name="baseLC" x="320" y="0"/>
	<anchor name="belowLC" x="319" y="-20"/>
</glyph>
<glyph name="h" format="2">
	<unicode hex="0068"/>
	<advance width="600"/>
	<outline>
		<contour>
			<point x="105" y="0" type="line"/>
			<point x="150" y="0" type="line"/>
			<point x="150" y="344" type="line"/>
			<point x="219" y="417"/>
			<point x="266" y="452"/>
			<point x="334" y="452" type="curve" smooth="yes"/>
			<point x="429" y="452"/>
			<point x="469" y="400"/>
			<point x="469" y="293" type="curve" smooth="yes"/>
			<point x="469" y="0" type="line"/>
			<point x="514" y="0" type="line"/>
			<point x="514" y="299" type="line" smooth="yes"/>
			<point x="514" y="429"/>
			<point x="458" y="492"/>
			<point x="341" y="492" type="curve" smooth="yes"/>
			<point x="264" y="492"/>
			<point x="206" y="447"/>
			<point x="149" y="385" type="curve"/>
			<point x="147" y="385" type="line"/>
			<point x="150" y="511" type="line"/>
			<point x="150" y="719" type="line"/>
			<point x="105" y="719" type="line"/>
		</contour>
	</outline>
	<anchor name="aboveUC" x="123" y="739"/>
	<anchor name="baseLC" x="127" y="0"/>
	<anchor name="belowLC" x="318" y="-20"/>
</glyph>
<glyph name="o" format="2">
	<unicode hex="006F"/>
	<advance width="600"/>
	<outline>
		<contour>
			<point x="300" y="-12" type="curve" smooth="yes"/>
			<point x="426" y="-12"/>
			<point x="533" y="80"/>
			<point x="533" y="239" type="curve" smooth="yes"/>
			<point x="533" y="400"/>
			<point x="426" y="492"/>
			<point x="300" y="492" type="curve" smooth="yes"/>
			<point x="174" y="492"/>
			<point x="67" y="400"/>
			<point x="67" y="239" type="curve" smooth="yes"/>
			<point x="67" y="80"/>
			<point x="174" y="-12"/>
		</contour>
		<contour>
			<point x="300" y="27" type="curve" smooth="yes"/>
			<point x="192" y="27"/>
			<point x="114" y="113"/>
			<point x="114" y="239" type="curve" smooth="yes"/>
			<point x="114" y="366"/>
			<point x="192" y="453"/>
			<point x="300" y="453" type="curve" smooth="yes"/>
			<point x="408" y="453"/>
			<point x="486" y="366"/>
			<point x="486" y="239" type="curve" smooth="yes"/>
			<point x="486" y="113"/>
			<point x="408" y="27"/>
		</contour>
	</outline>
	<anchor name="aboveLC" x="300" y="502"/>
	<anchor name="baseLC" x="300" y="0"/>
	<anchor name="belowLC" x="300" y="-20"/>
	<anchor name="hornLC" x="410" y="480"/>
	<anchor name="ogonekLC" x="300" y="0"/>
</glyph>
<glyph name="w" format="2">
	<unicode hex="0077"/>
	<advance width="600"/>
	<outline>
		<contour>
			<point x="134" y="0" type="line"/>
			<point x="194" y="0" type="line"/>
			<point x="267" y="289" type="line" smooth="yes"/>
			<point x="279" y="332"/>
			<point x="288" y="378"/>
			<point x="298" y="428" type="curve"/>
			<point x="302" y="428" type="line"/>
			<point x="314" y="378"/>
			<point x="322" y="333"/>
			<point x="333" y="290" type="curve" smooth="yes"/>
			<point x="408" y="0" type="line"/>
			<point x="468" y="0" type="line"/>
			<point x="589" y="480" type="line"/>
			<point x="545" y="480" type="line"/>
			<point x="470" y="169" type="line" smooth="yes"/>
			<point x="460" y="124"/>
			<point x="451" y="84"/>
			<point x="440" y="41" type="curve"/>
			<point x="436" y="41" type="line"/>
			<point x="427" y="84"/>
			<point x="415" y="124"/>
			<point x="404" y="169" type="curve" smooth="yes"/>
			<point x="328" y="472" type="line"/>
			<point x="275" y="472" type="line"/>
			<point x="198" y="169" type="line" smooth="yes"/>
			<point x="187" y="125"/>
			<point x="176" y="84"/>
			<point x="167" y="41" type="curve"/>
			<point x="163" y="41" type="line"/>
			<point x="155" y="84"/>
			<point x="145" y="124"/>
			<point x="134" y="169" type="curve" smooth="yes"/>
			<point x="58" y="480" type="line"/>
			<point x="11" y="480" type="line"/>
		</contour>
	</outline>
	<anchor name="aboveLC" x="300" y="502"/>
	<anchor name="belowLC" x="300" y="-20"/>
</glyph>
<glyph name="y" format="2">
	<unicode hex="0079"/>
	<advance width="600"/>
	<outline>
		<contour>
			<point x="124" y="-219" type="curve" smooth="yes"/>
			<point x="226" y="-219"/>
			<point x="286" y="-140"/>
			<point x="314" y="-60" type="curve"/>
			<point x="540" y="480" type="line"/>
			<point x="497" y="480" type="line"/>
			<point x="372" y="178" type="line" smooth="yes"/>
			<point x="355" y="137"/>
			<point x="335" y="86"/>
			<point x="316" y="43" type="curve"/>
			<point x="312" y="43" type="line"/>
			<point x="289" y="86"/>
			<point x="265" y="138"/>
			<point x="246" y="178" type="curve" smooth="yes"/>
			<point x="106" y="480" type="line"/>
			<point x="60" y="480" type="line"/>
			<point x="293" y="-9" type="line"/>
			<point x="276" y="-51" type="line" smooth="yes"/>
			<point x="247" y="-124"/>
			<point x="200" y="-178"/>
			<point x="126" y="-178" type="curve" smooth="yes"/>
			<point x="108" y="-178"/>
			<point x="91" y="-174"/>
			<point x="79" y="-170" type="curve"/>
			<point x="67" y="-209" type="line"/>
			<point x="81" y="-215"/>
			<point x="105" y="-219"/>
		</contour>
	</outline>
	<anchor name="aboveLC" x="301" y="502"/>
	<anchor name="belowLC" x="266" y="-227"/>
	<anchor name="ogonekLC" x="246" y="-116"/>
</glyph>
<glyph name="z" format="2">
	<unicode hex="007A"/>
	<advance width="600"/>
	<outline>
		<contour>
			<point x="72" y="0" type="line"/>
			<point x="526" y="0" type="line"/>
			<point x="526" y="39" type="line"/>
			<point x="139" y="39" type="line"/>
			<point x="515" y="457" type="line"/>
			<point x="515" y="480" type="line"/>
			<point x="112" y="480" type="line"/>
			<point x="112" y="442" type="line"/>
			<point x="448" y="442" type="line"/>
			<point x="72" y="24" type="line"/>
		</contour>
	</outline>
	<anchor name="aboveLC" x="319" y="502"/>
	<anchor name="baseLC" x="320" y="0"/>
	<anchor name="belowLC" x="315" y="-20"/>
</glyph>
<glyph name="Oslash" format="2">
	<unicode hex="00D8"/>
	<advance width="600"/>
	<outline>
		<contour>
			<point x="52" y="-2" type="line"/>
			<point x="83" y="-23" type="line"/>
			<point x="544" y="661" type="line"/>
			<point x="513" y="682" type="line"/>
		</contour>
		<component base="O"/>
	</outline>
	<anchor name="aboveUC" x="300" y="679"/>
	<anchor name="baseLC" x="300" y="0"/>
</glyph>
<glyph name="ae" format="2">
	<unicode hex="00E6"/>
	<advance width="600"/>
	<outline>
		<contour>
			<point x="143" y="-12" type="curve" smooth="yes"/>
			<point x="215" y="-12"/>
			<point x="277" y="37"/>
			<point x="326" y="102" type="curve"/>
			<point x="306" y="130" type="line"/>
			<point x="268" y="67"/>
			<point x="204" y="26"/>
			<point x="151" y="26" type="curve" smooth="yes"/>
			<point x="98" y="26"/>
			<point x="62" y="59"/>
			<point x="62" y="116" type="curve" smooth="yes"/>
			<point x="62" y="191"/>
			<point x="111" y="240"/>
			<point x="296" y="263" type="curve"/>
			<point x="296" y="297" type="line"/>
			<point x="94" y="275"/>
			<point x="18" y="212"/>
			<point x="18" y="114" type="curve" smooth="yes"/>
			<point x="18" y="33"/>
			<point x="72" y="-12"/>
		</contour>
		<contour>
			<point x="459" y="-12" type="curve" smooth="yes"/>
			<point x="514" y="-12"/>
			<point x="554" y="8"/>
			<point x="585" y="29" type="curve"/>
			<point x="567" y="62" type="line"/>
			<point x="541" y="44"/>
			<point x="504" y="27"/>
			<point x="461" y="27" type="curve" smooth="yes"/>
			<point x="364" y="27"/>
			<point x="319" y="115"/>
			<point x="319" y="241" type="curve" smooth="yes"/>
			<point x="319" y="397"/>
			<point x="386" y="454"/>
			<point x="454" y="454" type="curve" smooth="yes"/>
			<point x="527" y="454"/>
			<point x="561" y="386"/>
			<point x="561" y="257" type="curve"/>
			<point x="570" y="271" type="line"/>
			<point x="296" y="271" type="line"/>
			<point x="296" y="233" type="line"/>
			<point x="597" y="233" type="line"/>
			<point x="599" y="252"/>
			<point x="599" y="266"/>
			<point x="599" y="280" type="curve" smooth="yes"/>
			<point x="599" y="393"/>
			<point x="554" y="492"/>
			<point x="455" y="492" type="curve" smooth="yes"/>
			<point x="389" y="492"/>
			<point x="323" y="447"/>
			<point x="297" y="343" type="curve"/>
			<point x="313" y="343" type="line"/>
			<point x="299" y="447"/>
			<point x="252" y="492"/>
			<point x="181" y="492" type="curve" smooth="yes"/>
			<point x="122" y="492"/>
			<point x="67" y="463"/>
			<point x="35" y="442" type="curve"/>
			<point x="54" y="410" type="line"/>
			<point x="83" y="431"/>
			<point x="134" y="453"/>
			<point x="177" y="453" type="curve" smooth="yes"/>
			<point x="240" y="453"/>
			<point x="280" y="409"/>
			<point x="279" y="290" type="curve"/>
			<point x="279" y="243" type="line" smooth="yes"/>
			<point x="279" y="95"/>
			<point x="342" y="-12"/>
		</contour>
	</outline>
	<anchor name="aboveLC" x="319" y="502"/>
	<anchor name="baseLC" x="457" y="0"/>
	<anchor name="belowLC" x="310" y="-20"/>
</glyph>
<glyph name="eth" format="2">
	<unicode hex="00F0"/>
	<advance width="600"/>
	<outline>
		<contour>
			<point x="299" y="-12" type="curve" smooth="yes"/>
			<point x="437" y="-12"/>
			<point x="527" y="92"/>
			<point x="527" y="252" type="curve" smooth="yes"/>
			<point x="527" y="512"/>
			<point x="386" y="640"/>
			<point x="205" y="724" type="curve"/>
			<point x="183" y="694" type="line"/>
			<point x="359" y="607"/>
			<point x="482" y="504"/>
			<point x="482" y="251" type="curve" smooth="yes"/>
			<point x="482" y="126"/>
			<point x="429" y="27"/>
			<point x="300" y="27" type="curve" smooth="yes"/>
			<point x="196" y="27"/>
			<point x="112" y="106"/>
			<point x="112" y="219" type="curve" smooth="yes"/>
			<point x="112" y="318"/>
			<point x="173" y="404"/>
			<point x="301" y="404" type="curve" smooth="yes"/>
			<point x="361" y="404"/>
			<point x="431" y="375"/>
			<point x="485" y="296" type="curve"/>
			<point x="484" y="339" type="line"/>
			<point x="444" y="398"/>
			<point x="374" y="442"/>
			<point x="300" y="442" type="curve" smooth="yes"/>
			<point x="159" y="442"/>
			<point x="67" y="351"/>
			<point x="67" y="219" type="curve" smooth="yes"/>
			<point x="67" y="75"/>
			<point x="179" y="-12"/>
		</contour>
		<contour>
			<point x="195" y="513" type="line"/>
			<point x="505" y="675" type="line"/>
			<point x="488" y="704" type="line"/>
			<point x="178" y="543" type="line"/>
		</contour>
	</outline>
	<anchor name="aboveUC" x="330" y="739"/>
	<anchor name="belowLC" x="309" y="-20"/>
</glyph>
<glyph name="hbar" format="2">
	<unicode hex="0127"/>
	<advance width="600"/>
	<outline>
		<contour>
			<point x="105" y="0" type="line"/>
			<point x="150" y="0" type="line"/>
			<point x="150" y="324" type="line"/>
			<point x="219" y="397"/>
			<point x="266" y="432"/>
			<point x="334" y="432" type="curve" smooth="yes"/>
			<point x="429" y="432"/>
			<point x="469" y="380"/>
			<point x="469" y="273" type="curve" smooth="yes"/>
			<point x="469" y="0" type="line"/>
			<point x="514" y="0" type="line"/>
			<point x="514" y="279" type="line" smooth="yes"/>
			<point x="514" y="409"/>
			<point x="458" y="472"/>
			<point x="341" y="472" type="curve" smooth="yes"/>
			<point x="264" y="472"/>
			<point x="206" y="428"/>
			<point x="149" y="365" type="curve"/>
			<point x="147" y="365" type="line"/>
			<point x="150" y="491" type="line"/>
			<point x="150" y="719" type="line"/>
			<point x="105" y="719" type="line"/>
		</contour>
		<contour>
			<point x="29" y="578" type="line"/>
			<point x="379" y="578" type="line"/>
			<point x="379" y="616" type="line"/>
			<point x="107" y="616" type="line"/>
			<point x="29" y="611" type="line"/>
		</contour>
	</outline>
</glyph>
<glyph name="Iogonek" format="2">
	<unicode hex="012E"/>
	<advance width="600"/>
	<outline>
		<contour>
			<point x="313" y="-224" type="curve" smooth="yes"/>
			<point x="351" y="-224"/>
			<point x="374" y="-208"/>
			<point x="395" y="-188" type="curve"/>
			<point x="375" y="-163" type="line"/>
			<point x="361" y="-177"/>
			<point x="344" y="-188"/>
			<point x="319" y="-188" type="curve" smooth="yes"/>
			<point x="288" y="-188"/>
			<point x="258" y="-169"/>
			<point x="258" y="-129" type="curve" smooth="yes"/>
			<point x="258" y="-90"/>
			<point x="283" y="-47"/>
			<point x="330" y="0" type="curve"/>
			<point x="493" y="0" type="line"/>
			<point x="493" y="40" type="line"/>
			<point x="323" y="40" type="line"/>
			<point x="323" y="619" type="line"/>
			<point x="493" y="619" type="line"/>
			<point x="493" y="659" type="line"/>
			<point x="107" y="659" type="line"/>
			<point x="107" y="619" type="line"/>
			<point x="277" y="619" type="line"/>
			<point x="277" y="40" type="line"/>
			<point x="107" y="40" type="line"/>
			<point x="107" y="0" type="line"/>
			<point x="287" y="0" type="line"/>
			<point x="252" y="-38"/>
			<point x="218" y="-84"/>
			<point x="218" y="-135" type="curve" smooth="yes"/>
			<point x="218" y="-196"/>
			<point x="259" y="-224"/>
		</contour>
	</outline>
	<anchor name="aboveUC" x="300" y="679"/>
</glyph>
<glyph name="dotlessi" format="2">
	<unicode hex="0131"/>
	<advance width="600"/>
	<outline>
		<contour>
			<point x="338" y="0" type="line"/>
			<point x="382" y="0" type="line"/>
			<point x="382" y="480" type="line"/>
			<point x="97" y="480" type="line"/>
			<point x="97" y="442" type="line"/>
			<point x="338" y="442" type="line"/>
		</contour>
	</outline>
	<anchor name="aboveLC" x="349" y="502"/>
	<anchor name="baseLC" x="354" y="0"/>
	<anchor name="belowLC" x="349" y="-20"/>
	<anchor name="ogonekLC" x="359" y="0"/>
</glyph>
<glyph name="IJ" format="2">
	<unicode hex="0132"/>
	<advance width="600"/>
	<outline>
		<contour>
			<point x="134" y="0" type="line"/>
			<point x="180" y="0" type="line"/>
			<point x="180" y="659" type="line"/>
			<point x="134" y="659" type="line"/>
		</contour>
		<contour>
			<point x="356" y="-156" type="curve" smooth="yes"/>
			<point x="431" y="-156"/>
			<point x="466" y="-109"/>
			<point x="466" y="-15" type="curve" smooth="yes"/>
			<point x="466" y="659" type="line"/>
			<point x="420" y="659" type="line"/>
			<point x="420" y="-9" type="line" smooth="yes"/>
			<point x="420" y="-70"/>
			<point x="410" y="-113"/>
			<point x="355" y="-113" type="curve" smooth="yes"/>
			<point x="336" y="-113"/>
			<point x="316" y="-108"/>
			<point x="304" y="-104" type="curve"/>
			<point x="294" y="-143" type="line"/>
			<point x="309" y="-149"/>
			<point x="333" y="-156"/>
		</contour>
	</outline>
</glyph>
<glyph name="Lslash" format="2">
	<unicode hex="0141"/>
	<advance width="600"/>
	<outline>
		<contour>
			<point x="37" y="188" type="line"/>
			<point x="154" y="248" type="line"/>
			<point x="191" y="264" type="line"/>
			<point x="440" y="395" type="line"/>
			<point x="423" y="427" type="line"/>
			<point x="191" y="305" type="line"/>
			<point x="154" y="288" type="line"/>
			<point x="20" y="219" type="line"/>
		</contour>
		<component base="L"/>
	</outline>
	<anchor name="aboveUC" x="187" y="679"/>
	<anchor name="belowLC" x="357" y="-20"/>
</glyph>
<glyph name="lslash" format="2">
	<unicode hex="0142"/>
	<advance width="600"/>
	<outline>
		<contour>
			<point x="150" y="295" type="line"/>
			<point x="274" y="368" type="line"/>
			<point x="310" y="385" type="line"/>
			<point x="494" y="491" type="line"/>
			<point x="478" y="523" type="line"/>
			<point x="310" y="427" type="line"/>
			<point x="274" y="411" type="line"/>
			<point x="133" y="327" type="line"/>
		</contour>
		<component base="l"/>
	</outline>
	<anchor name="aboveUC" x="292" y="739"/>
	<anchor name="belowLC" x="396" y="-20"/>
</glyph>
<glyph name="Tbar" format="2">
	<unicode hex="0166"/>
	<advance width="600"/>
	<outline>
		<contour>
			<point x="131" y="328" type="line"/>
			<point x="469" y="328" type="line"/>
			<point x="469" y="365" type="line"/>
			<point x="216" y="365" type="line"/>
			<point x="131" y="363" type="line"/>
		</contour>
		<component base="T"/>
	</outline>
	<anchor name="aboveUC" x="300" y="679"/>
	<anchor name="belowLC" x="300" y="-20"/>
</glyph>
<glyph name="uhorn" format="2">
	<unicode hex="01B0"/>
	<advance width="600"/>
	<outline>
		<contour>
			<point x="490" y="457" type="line"/>
			<point x="532" y="471"/>
			<point x="583" y="501"/>
			<point x="583" y="582" type="curve" smooth="yes"/>
			<point x="583" y="606"/>
			<point x="577" y="630"/>
			<point x="564" y="653" type="curve"/>
			<point x="526" y="633" type="line"/>
			<point x="536" y="616"/>
			<point x="540" y="596"/>
			<point x="540" y="579" type="curve" smooth="yes"/>
			<point x="540" y="519"/>
			<point x="507" y="490"/>
			<point x="456" y="480" type="curve"/>
		</contour>
		<component base="u"/>
	</outline>
	<anchor name="aboveLC" x="294" y="502"/>
	<anchor name="belowLC" x="293" y="-20"/>
</glyph>
<glyph name="Aringacute" format="2">
	<unicode hex="01FA"/>
	<advance width="600"/>
	<outline>
		<contour>
			<point x="262" y="837" type="line"/>
			<point x="394" y="914" type="line"/>
			<point x="371" y="945" type="line"/>
			<point x="243" y="852" type="line"/>
		</contour>
		<component base="Aring"/>
	</outline>
</glyph>
<glyph name="schwahookrhotic" format="2">
	<unicode hex="025A"/>
	<advance width="600"/>
	<outline>
		<contour>
			<point x="225" y="-12" type="curve" smooth="yes"/>
			<point x="346" y="-12"/>
			<point x="424" y="94"/>
			<point x="424" y="235" type="curve" smooth="yes"/>
			<point x="424" y="404"/>
			<point x="334" y="492"/>
			<point x="219" y="492" type="curve" smooth="yes"/>
			<point x="146" y="492"/>
			<point x="104" y="469"/>
			<point x="65" y="442" type="curve"/>
			<point x="83" y="408" type="line"/>
			<point x="121" y="435"/>
			<point x="157" y="454"/>
			<point x="218" y="454" type="curve" smooth="yes"/>
			<point x="305" y="454"/>
			<point x="380" y="384"/>
			<point x="380" y="230" type="curve" smooth="yes"/>
			<point x="380" y="113"/>
			<point x="320" y="26"/>
			<point x="225" y="26" type="curve" smooth="yes"/>
			<point x="146" y="26"/>
			<point x="90" y="76"/>
			<point x="74" y="178" type="curve"/>
			<point x="60" y="160" type="line"/>
			<point x="481" y="327" type="line"/>
			<point x="490" y="258"/>
			<point x="528" y="233"/>
			<point x="561" y="233" type="curve" smooth="yes"/>
			<point x="588" y="233"/>
			<point x="607" y="246"/>
			<point x="620" y="257" type="curve"/>
			<point x="603" y="285" type="line"/>
			<point x="594" y="276"/>
			<point x="580" y="268"/>
			<point x="566" y="268" type="curve" smooth="yes"/>
			<point x="539" y="268"/>
			<point x="522" y="279"/>
			<point x="513" y="355" type="curve"/>
			<point x="484" y="367" type="line"/>
			<point x="34" y="186" type="line"/>
			<point x="45" y="76"/>
			<point x="109" y="-12"/>
		</contour>
	</outline>
	<anchor name="aboveLC" x="237" y="502"/>
	<anchor name="belowLC" x="236" y="-20"/>
</glyph>
<glyph name="dotlessjstroke" format="2">
	<unicode hex="025F"/>
	<advance width="600"/>
	<outline>
		<contour>
			<point x="134" y="229" type="line"/>
			<point x="567" y="229" type="line"/>
			<point x="567" y="268" type="line"/>
			<point x="338" y="268" type="line"/>
			<point x="134" y="263" type="line"/>
		</contour>
		<component base="dotlessj"/>
	</outline>
	<anchor name="aboveLC" x="349" y="502"/>
	<anchor name="belowLC" x="232" y="-227"/>
</glyph>
<glyph name="ghook" format="2">
	<unicode hex="0260"/>
	<advance width="600"/>
	<outline>
		<contour>
			<point x="286" y="-229" type="curve" smooth="yes"/>
			<point x="414" y="-229"/>
			<point x="494" y="-156"/>
			<point x="494" y="-42" type="curve" smooth="yes"/>
			<point x="494" y="473" type="line"/>
			<point x="494" y="533"/>
			<point x="510" y="577"/>
			<point x="557" y="577" type="curve" smooth="yes"/>
			<point x="572" y="577"/>
			<point x="584" y="573"/>
			<point x="594" y="569" type="curve"/>
			<point x="604" y="605" type="line"/>
			<point x="591" y="611"/>
			<point x="574" y="615"/>
			<point x="556" y="615" type="curve" smooth="yes"/>
			<point x="489" y="615"/>
			<point x="450" y="570"/>
			<point x="450" y="479" type="curve"/>
			<point x="452" y="424" type="line"/>
			<point x="450" y="424" type="line"/>
			<point x="406" y="465"/>
			<point x="354" y="492"/>
			<point x="293" y="492" type="curve" smooth="yes"/>
			<point x="174" y="492"/>
			<point x="67" y="398"/>
			<point x="67" y="246" type="curve" smooth="yes"/>
			<point x="67" y="88"/>
			<point x="153" y="0"/>
			<point x="279" y="0" type="curve" smooth="yes"/>
			<point x="346" y="0"/>
			<point x="409" y="37"/>
			<point x="450" y="82" type="curve"/>
			<point x="452" y="82" type="line"/>
			<point x="450" y="-35" type="line"/>
			<point x="449" y="-132"/>
			<point x="390" y="-192"/>
			<point x="286" y="-192" type="curve" smooth="yes"/>
			<point x="232" y="-192"/>
			<point x="175" y="-177"/>
			<point x="125" y="-142" type="curve"/>
			<point x="105" y="-177" type="line"/>
			<point x="155" y="-209"/>
			<point x="217" y="-229"/>
		</contour>
		<contour>
			<point x="285" y="39" type="curve" smooth="yes"/>
			<point x="178" y="39"/>
			<point x="114" y="122"/>
			<point x="114" y="246" type="curve" smooth="yes"/>
			<point x="114" y="363"/>
			<point x="194" y="453"/>
			<point x="295" y="453" type="curve" smooth="yes"/>
			<point x="345" y="453"/>
			<point x="396" y="434"/>
			<point x="450" y="382" type="curve"/>
			<point x="450" y="127" type="line"/>
			<point x="396" y="70"/>
			<point x="341" y="39"/>
		</contour>
	</outline>
	<anchor name="aboveLC" x="301" y="502"/>
	<anchor name="belowLC" x="291" y="-227"/>
</glyph>
<glyph name="gammalatin" format="2">
	<unicode hex="0263"/>
	<advance width="600"/>
	<outline>
		<contour>
			<point x="275" y="25" type="line"/>
			<point x="327" y="25" type="line"/>
			<point x="538" y="480" type="line"/>
			<point x="493" y="480" type="line"/>
			<point x="363" y="189" type="line"/>
			<point x="341" y="142"/>
			<point x="327" y="108"/>
			<point x="303" y="64" type="curve"/>
			<point x="299" y="64" type="line"/>
			<point x="276" y="108"/>
			<point x="262" y="142"/>
			<point x="240" y="189" type="curve"/>
			<point x="110" y="480" type="line"/>
			<point x="62" y="480" type="line"/>
		</contour>
		<contour>
			<point x="301" y="-231" type="curve" smooth="yes"/>
			<point x="362" y="-231"/>
			<point x="391" y="-189"/>
			<point x="391" y="-129" type="curve" smooth="yes"/>
			<point x="391" y="-83"/>
			<point x="362" y="-35"/>
			<point x="326" y="44" type="curve"/>
			<point x="276" y="44" type="line"/>
			<point x="241" y="-35"/>
			<point x="212" y="-83"/>
			<point x="212" y="-129" type="curve" smooth="yes"/>
			<point x="212" y="-189"/>
			<point x="241" y="-231"/>
		</contour>
		<contour>
			<point x="301" y="-195" type="curve" smooth="yes"/>
			<point x="268" y="-195"/>
			<point x="254" y="-167"/>
			<point x="254" y="-131" type="curve" smooth="yes"/>
			<point x="254" y="-96"/>
			<point x="275" y="-44"/>
			<point x="299" y="3" type="curve"/>
			<point x="303" y="3" type="line"/>
			<point x="328" y="-44"/>
			<point x="348" y="-92"/>
			<point x="348" y="-131" type="curve" smooth="yes"/>
			<point x="348" y="-167"/>
			<point x="335" y="-195"/>
		</contour>
	</outline>
	<anchor name="aboveLC" x="300" y="502"/>
	<anchor name="belowLC" x="300" y="-229"/>
</glyph>
<glyph name="ramshorn" format="2">
	<unicode hex="0264"/>
	<advance width="600"/>
	<outline>
		<contour>
			<point x="300" y="-12" type="curve" smooth="yes"/>
			<point x="411" y="-12"/>
			<point x="477" y="52"/>
			<point x="477" y="149" type="curve" smooth="yes"/>
			<point x="477" y="232"/>
			<point x="414" y="303"/>
			<point x="331" y="373" type="curve"/>
			<point x="382" y="425"/>
			<point x="414" y="453"/>
			<point x="458" y="453" type="curve" smooth="yes"/>
			<point x="476" y="453"/>
			<point x="492" y="449"/>
			<point x="506" y="439" type="curve"/>
			<point x="522" y="472" type="line"/>
			<point x="504" y="485"/>
			<point x="479" y="492"/>
			<point x="453" y="492" type="curve" smooth="yes"/>
			<point x="399" y="492"/>
			<point x="354" y="456"/>
			<point x="300" y="400" type="curve"/>
			<point x="245" y="456"/>
			<point x="201" y="492"/>
			<point x="147" y="492" type="curve" smooth="yes"/>
			<point x="121" y="492"/>
			<point x="96" y="485"/>
			<point x="78" y="472" type="curve"/>
			<point x="94" y="439" type="line"/>
			<point x="108" y="449"/>
			<point x="124" y="453"/>
			<point x="142" y="453" type="curve" smooth="yes"/>
			<point x="185" y="453"/>
			<point x="218" y="425"/>
			<point x="269" y="373" type="curve"/>
			<point x="184" y="303"/>
			<point x="123" y="232"/>
			<point x="123" y="149" type="curve" smooth="yes"/>
			<point x="123" y="52"/>
			<point x="189" y="-12"/>
		</contour>
		<contour>
			<point x="300" y="27" type="curve" smooth="yes"/>
			<point x="218" y="27"/>
			<point x="168" y="79"/>
			<point x="168" y="149" type="curve" smooth="yes"/>
			<point x="168" y="222"/>
			<point x="223" y="285"/>
			<point x="300" y="349" type="curve"/>
			<point x="377" y="285"/>
			<point x="432" y="222"/>
			<point x="432" y="149" type="curve" smooth="yes"/>
			<point x="432" y="79"/>
			<point x="382" y="27"/>
		</contour>
	</outline>
	<anchor name="aboveLC" x="300" y="502"/>
	<anchor name="belowLC" x="300" y="-20"/>
</glyph>
<glyph name="hhook" format="2">
	<unicode hex="0266"/>
	<advance width="600"/>
	<outline>
		<contour>
			<point x="105" y="0" type="line"/>
			<point x="150" y="0" type="line"/>
			<point x="150" y="342" type="line"/>
			<point x="219" y="415"/>
			<point x="266" y="450"/>
			<point x="334" y="450" type="curve" smooth="yes"/>
			<point x="429" y="450"/>
			<point x="469" y="398"/>
			<point x="469" y="291" type="curve" smooth="yes"/>
			<point x="469" y="0" type="line"/>
			<point x="514" y="0" type="line"/>
			<point x="514" y="297" type="line" smooth="yes"/>
			<point x="514" y="427"/>
			<point x="458" y="490"/>
			<point x="341" y="490" type="curve" smooth="yes"/>
			<point x="264" y="490"/>
			<point x="206" y="445"/>
			<point x="149" y="383" type="curve"/>
			<point x="145" y="383" type="line"/>
			<point x="150" y="556" type="line"/>
			<point x="151" y="637"/>
			<point x="184" y="693"/>
			<point x="264" y="693" type="curve" smooth="yes"/>
			<point x="285" y="693"/>
			<point x="309" y="688"/>
			<point x="332" y="677" type="curve"/>
			<point x="346" y="713" type="line"/>
			<point x="321" y="724"/>
			<point x="289" y="731"/>
			<point x="263" y="731" type="curve" smooth="yes"/>
			<point x="164" y="731"/>
			<point x="105" y="667"/>
			<point x="105" y="558" type="curve"/>
		</contour>
	</outline>
	<anchor name="aboveUC" x="263" y="739"/>
	<anchor name="belowLC" x="319" y="-20"/>
</glyph>
<glyph name="dotlessjstrokehook" format="2">
	<unicode hex="0284"/>
	<advance width="600"/>
	<outline>
		<contour>
			<point x="87" y="234" type="line"/>
			<point x="510" y="234" type="line"/>
			<point x="510" y="271" type="line"/>
			<point x="279" y="271" type="line"/>
			<point x="87" y="267" type="line"/>
		</contour>
		<component base="esh"/>
	</outline>
	<anchor name="aboveUC" x="346" y="739"/>
	<anchor name="belowLC" x="273" y="-227"/>
</glyph>
<glyph name="tesh" format="2">
	<unicode hex="02A7"/>
	<advance width="600"/>
	<outline>
		<contour>
			<point x="266" y="-12" type="curve" smooth="yes"/>
			<point x="286" y="-12"/>
			<point x="317" y="-4"/>
			<point x="344" y="6" type="curve"/>
			<point x="333" y="42" type="line"/>
			<point x="315" y="34"/>
			<point x="290" y="27"/>
			<point x="272" y="27" type="curve" smooth="yes"/>
			<point x="207" y="27"/>
			<point x="192" y="68"/>
			<point x="192" y="129" type="curve" smooth="yes"/>
			<point x="192" y="442" type="line"/>
			<point x="422" y="442" type="line"/>
			<point x="422" y="480" type="line"/>
			<point x="192" y="480" type="line"/>
			<point x="192" y="639" type="line"/>
			<point x="154" y="639" type="line"/>
			<point x="149" y="480" type="line"/>
			<point x="73" y="476" type="line"/>
			<point x="73" y="442" type="line"/>
			<point x="148" y="442" type="line"/>
			<point x="148" y="133" type="line" smooth="yes"/>
			<point x="148" y="47"/>
			<point x="175" y="-12"/>
		</contour>
		<contour>
			<point x="344" y="-229" type="curve" smooth="yes"/>
			<point x="417" y="-229"/>
			<point x="451" y="-183"/>
			<point x="451" y="-89" type="curve" smooth="yes"/>
			<point x="451" y="590" type="line" smooth="yes"/>
			<point x="451" y="651"/>
			<point x="463" y="695"/>
			<point x="524" y="695" type="curve" smooth="yes"/>
			<point x="539" y="695"/>
			<point x="554" y="689"/>
			<point x="564" y="685" type="curve"/>
			<point x="575" y="721" type="line"/>
			<point x="562" y="727"/>
			<point x="542" y="733"/>
			<point x="523" y="733" type="curve" smooth="yes"/>
			<point x="443" y="733"/>
			<point x="406" y="687"/>
			<point x="406" y="594" type="curve" smooth="yes"/>
			<point x="406" y="-86" type="line"/>
			<point x="406" y="-147"/>
			<point x="396" y="-191"/>
			<point x="343" y="-191" type="curve" smooth="yes"/>
			<point x="324" y="-191"/>
			<point x="305" y="-185"/>
			<point x="293" y="-181" type="curve"/>
			<point x="282" y="-217" type="line"/>
			<point x="297" y="-223"/>
			<point x="321" y="-229"/>
		</contour>
	</outline>
	<anchor name="aboveUC" x="309" y="730"/>
	<anchor name="belowLC" x="331" y="-227"/>
</glyph>
<glyph name="hookrhoticmod" format="2">
	<unicode hex="02DE"/>
	<advance width="600"/>
	<outline>
		<contour>
			<point x="325" y="232" type="curve" smooth="yes"/>
			<point x="351" y="232"/>
			<point x="370" y="244"/>
			<point x="384" y="255" type="curve"/>
			<point x="366" y="283" type="line"/>
			<point x="357" y="274"/>
			<point x="345" y="267"/>
			<point x="329" y="267" type="curve" smooth="yes"/>
			<point x="301" y="267"/>
			<point x="282" y="284"/>
			<point x="271" y="378" type="curve"/>
			<point x="150" y="330" type="line"/>
			<point x="150" y="293" type="line"/>
			<point x="243" y="327" type="line"/>
			<point x="256" y="259"/>
			<point x="286" y="232"/>
		</contour>
	</outline>
</glyph>
<glyph name="gravecmb" format="2">
	<unicode hex="0300"/>
	<advance width="600"/>
	<outline>
		<contour>
			<point x="331" y="572" type="line"/>
			<point x="355" y="595" type="line"/>
			<point x="221" y="754" type="line"/>
			<point x="187" y="723" type="line"/>
		</contour>
	</outline>
	<anchor name="_aboveLC" x="300" y="502"/>
	<anchor name="aboveLC" x="300" y="532"/>
</glyph>
<glyph name="acutecmb" format="2">
	<unicode hex="0301"/>
	<advance width="600"/>
	<outline>
		<contour>
			<point x="269" y="572" type="line"/>
			<point x="413" y="723" type="line"/>
			<point x="379" y="754" type="line"/>
			<point x="245" y="595" type="line"/>
		</contour>
	</outline>
	<anchor name="_aboveLC" x="300" y="502"/>
	<anchor name="aboveLC" x="300" y="532"/>
</glyph>
<glyph name="ringcmb" format="2">
	<unicode hex="030A"/>
	<advance width="600"/>
	<outline>
		<contour>
			<point x="300" y="570" type="curve" smooth="yes"/>
			<point x="358" y="570"/>
			<point x="397" y="609"/>
			<point x="397" y="661" type="curve" smooth="yes"/>
			<point x="397" y="714"/>
			<point x="358" y="753"/>
			<point x="300" y="753" type="curve" smooth="yes"/>
			<point x="242" y="753"/>
			<point x="203" y="714"/>
			<point x="203" y="661" type="curve" smooth="yes"/>
			<point x="203" y="609"/>
			<point x="242" y="570"/>
		</contour>
		<contour>
			<point x="300" y="596" type="curve" smooth="yes"/>
			<point x="264" y="596"/>
			<point x="235" y="625"/>
			<point x="235" y="661" type="curve" smooth="yes"/>
			<point x="235" y="698"/>
			<point x="264" y="727"/>
			<point x="300" y="727" type="curve" smooth="yes"/>
			<point x="336" y="727"/>
			<point x="365" y="698"/>
			<point x="365" y="661" type="curve" smooth="yes"/>
			<point x="365" y="625"/>
			<point x="336" y="596"/>
		</contour>
	</outline>
	<anchor name="_aboveLC" x="300" y="502"/>
	<anchor name="aboveLC" x="300" y="526"/>
</glyph>
<glyph name="caroncmb" format="2">
	<unicode hex="030C"/>
	<advance width="600"/>
	<outline>
		<contour>
			<point x="279" y="573" type="line"/>
			<point x="321" y="573" type="line"/>
			<point x="438" y="717" type="line"/>
			<point x="416" y="737" type="line"/>
			<point x="302" y="612" type="line"/>
			<point x="298" y="612" type="line"/>
			<point x="184" y="737" type="line"/>
			<point x="162" y="717" type="line"/>
		</contour>
	</outline>
	<anchor name="_aboveLC" x="300" y="502"/>
</glyph>
<glyph name="righttackbelowcmb" format="2">
	<unicode hex="0319"/>
	<advance width="600"/>
	<outline>
		<contour>
			<point x="221" y="-244" type="line"/>
			<point x="256" y="-244" type="line"/>
			<point x="256" y="-169" type="line"/>
			<point x="369" y="-169" type="line"/>
			<point x="369" y="-136" type="line"/>
			<point x="256" y="-136" type="line"/>
			<point x="256" y="-61" type="line"/>
			<point x="221" y="-61" type="line"/>
		</contour>
	</outline>
	<anchor name="_belowLC" x="300" y="-20"/>
</glyph>
<glyph name="commabelowcmb" format="2">
	<unicode hex="0326"/>
	<advance width="600"/>
	<outline>
		<contour>
			<point x="223" y="-219" type="line"/>
			<point x="317" y="-213"/>
			<point x="368" y="-186"/>
			<point x="368" y="-134" type="curve" smooth="yes"/>
			<point x="368" y="-91"/>
			<point x="341" y="-72"/>
			<point x="265" y="-61" type="curve"/>
			<point x="252" y="-90" type="line"/>
			<point x="300" y="-94"/>
			<point x="329" y="-106"/>
			<point x="329" y="-137" type="curve" smooth="yes"/>
			<point x="329" y="-166"/>
			<point x="303" y="-183"/>
			<point x="216" y="-189" type="curve"/>
		</contour>
	</outline>
	<anchor name="_belowLC" x="300" y="-20"/>
</glyph>
<glyph name="Alphatonos" format="2">
	<unicode hex="0386"/>
	<advance width="600"/>
	<outline>
		<contour>
			<point x="51" y="0" type="line"/>
			<point x="97" y="0" type="line"/>
			<point x="229" y="388" type="line" smooth="yes"/>
			<point x="255" y="466"/>
			<point x="278" y="532"/>
			<point x="301" y="614" type="curve"/>
			<point x="305" y="614" type="line"/>
			<point x="328" y="532"/>
			<point x="350" y="466"/>
			<point x="376" y="388" type="curve" smooth="yes"/>
			<point x="506" y="0" type="line"/>
			<point x="555" y="0" type="line"/>
			<point x="326" y="659" type="line"/>
			<point x="280" y="659" type="line"/>
		</contour>
		<contour>
			<point x="157" y="226" type="line"/>
			<point x="446" y="226" type="line"/>
			<point x="446" y="265" type="line"/>
			<point x="157" y="265" type="line"/>
		</contour>
		<component base="tonos.cap" xOffset="-201"/>
	</outline>
</glyph>
<glyph name="Xi" format="2">
	<unicode hex="039E"/>
	<advance width="600"/>
	<outline>
		<contour>
			<point x="73" y="0" type="line"/>
			<point x="527" y="0" type="line"/>
			<point x="527" y="40" type="line"/>
			<point x="73" y="40" type="line"/>
		</contour>
		<contour>
			<point x="152" y="330" type="line"/>
			<point x="448" y="330" type="line"/>
			<point x="448" y="370" type="line"/>
			<point x="152" y="370" type="line"/>
		</contour>
		<contour>
			<point x="83" y="619" type="line"/>
			<point x="517" y="619" type="line"/>
			<point x="517" y="659" type="line"/>
			<point x="83" y="659" type="line"/>
		</contour>
	</outline>
</glyph>
<glyph name="alpha" format="2">
	<unicode hex="03B1"/>
	<advance width="600"/>
	<outline>
		<contour>
			<point x="263" y="-12" type="curve" smooth="yes"/>
			<point x="334" y="-12"/>
			<point x="389" y="23"/>
			<point x="437" y="96" type="curve"/>
			<point x="439" y="96" type="line"/>
			<point x="429" y="24"/>
			<point x="466" y="-12"/>
			<point x="516" y="-12" type="curve" smooth="yes"/>
			<point x="539" y="-12"/>
			<point x="554" y="-6"/>
			<point x="565" y="-1" type="curve"/>
			<point x="557" y="35" type="line"/>
			<point x="548" y="31"/>
			<point x="534" y="27"/>
			<point x="522" y="27" type="curve" smooth="yes"/>
			<point x="496" y="27"/>
			<point x="474" y="48"/>
			<point x="474" y="80" type="curve" smooth="yes"/>
			<point x="474" y="177"/>
			<point x="507" y="345"/>
			<point x="533" y="480" type="curve"/>
			<point x="489" y="480" type="line"/>
			<point x="466" y="348" type="line"/>
			<point x="464" y="348" type="line"/>
			<point x="439" y="455"/>
			<point x="360" y="492"/>
			<point x="290" y="492" type="curve" smooth="yes"/>
			<point x="172" y="492"/>
			<point x="67" y="396"/>
			<point x="67" y="228" type="curve" smooth="yes"/>
			<point x="67" y="69"/>
			<point x="147" y="-12"/>
		</contour>
		<contour>
			<point x="269" y="27" type="curve" smooth="yes"/>
			<point x="170" y="27"/>
			<point x="113" y="105"/>
			<point x="113" y="228" type="curve" smooth="yes"/>
			<point x="113" y="372"/>
			<point x="200" y="453"/>
			<point x="292" y="453" type="curve" smooth="yes"/>
			<point x="344" y="453"/>
			<point x="418" y="433"/>
			<point x="449" y="298" type="curve"/>
			<point x="441" y="204" type="line" smooth="yes"/>
			<point x="433" y="108"/>
			<point x="352" y="27"/>
		</contour>
	</outline>
	<anchor name="aboveLC" x="321" y="502"/>
	<anchor name="belowLC" x="265" y="-20"/>
</glyph>
<glyph name="ghe" format="2">
	<unicode hex="0433"/>
	<advance width="600"/>
	<outline>
		<contour>
			<point x="163" y="0" type="line"/>
			<point x="208" y="0" type="line"/>
			<point x="208" y="442" type="line"/>
			<point x="521" y="442" type="line"/>
			<point x="521" y="480" type="line"/>
			<point x="163" y="480" type="line"/>
		</contour>
	</outline>
	<anchor name="aboveLC" x="357" y="502"/>
</glyph>
<glyph name="pe" format="2">
	<unicode hex="043F"/>
	<advance width="600"/>
	<outline>
		<contour>
			<point x="105" y="0" type="line"/>
			<point x="150" y="0" type="line"/>
			<point x="150" y="442" type="line"/>
			<point x="450" y="442" type="line"/>
			<point x="450" y="0" type="line"/>
			<point x="495" y="0" type="line"/>
			<point x="495" y="480" type="line"/>
			<point x="105" y="480" type="line"/>
		</contour>
	</outline>
	<anchor name="aboveLC" x="300" y="502"/>
</glyph>
<glyph name="te" format="2">
	<unicode hex="0442"/>
	<advance width="600"/>
	<outline>
		<contour>
			<point x="278" y="0" type="line"/>
			<point x="322" y="0" type="line"/>
			<point x="322" y="442" type="line"/>
			<point x="524" y="442" type="line"/>
			<point x="524" y="480" type="line"/>
			<point x="76" y="480" type="line"/>
			<point x="76" y="442" type="line"/>
			<point x="278" y="442" type="line"/>
		</contour>
	</outline>
	<anchor name="aboveLC" x="300" y="502"/>
</glyph>
<glyph name="ef" format="2">
	<unicode hex="0444"/>
	<advance width="600"/>
	<outline>
		<contour>
			<point x="278" y="-217" type="line"/>
			<point x="322" y="-217" type="line"/>
			<point x="322" y="-44" type="line"/>
			<point x="321" y="28" type="line"/>
			<point x="351" y="5"/>
			<point x="382" y="-12"/>
			<point x="410" y="-12" type="curve" smooth="yes"/>
			<point x="491" y="-12"/>
			<point x="559" y="84"/>
			<point x="559" y="247" type="curve" smooth="yes"/>
			<point x="559" y="396"/>
			<point x="511" y="492"/>
			<point x="417" y="492" type="curve" smooth="yes"/>
			<point x="383" y="492"/>
			<point x="349" y="475"/>
			<point x="321" y="451" type="curve"/>
			<point x="322" y="524" type="line"/>
			<point x="322" y="719" type="line"/>
			<point x="278" y="719" type="line"/>
			<point x="278" y="524" type="line"/>
			<point x="279" y="452" type="line"/>
			<point x="251" y="473"/>
			<point x="224" y="492"/>
			<point x="190" y="492" type="curve" smooth="yes"/>
			<point x="108" y="492"/>
			<point x="41" y="394"/>
			<point x="41" y="239" type="curve" smooth="yes"/>
			<point x="41" y="77"/>
			<point x="100" y="-12"/>
			<point x="190" y="-12" type="curve" smooth="yes"/>
			<point x="227" y="-12"/>
			<point x="254" y="7"/>
			<point x="279" y="28" type="curve"/>
			<point x="278" y="-44" type="line"/>
		</contour>
		<contour>
			<point x="197" y="27" type="curve" smooth="yes"/>
			<point x="125" y="27"/>
			<point x="87" y="112"/>
			<point x="87" y="239" type="curve" smooth="yes"/>
			<point x="87" y="360"/>
			<point x="130" y="453"/>
			<point x="193" y="453" type="curve" smooth="yes"/>
			<point x="222" y="453"/>
			<point x="249" y="441"/>
			<point x="279" y="412" type="curve"/>
			<point x="279" y="70" type="line"/>
			<point x="248" y="39"/>
			<point x="225" y="27"/>
		</contour>
		<contour>
			<point x="407" y="27" type="curve" smooth="yes"/>
			<point x="385" y="27"/>
			<point x="353" y="38"/>
			<point x="321" y="68" type="curve"/>
			<point x="321" y="412" type="line"/>
			<point x="353" y="441"/>
			<point x="382" y="453"/>
			<point x="409" y="453" type="curve" smooth="yes"/>
			<point x="485" y="453"/>
			<point x="513" y="365"/>
			<point x="513" y="247" type="curve" smooth="yes"/>
			<point x="513" y="117"/>
			<point x="471" y="27"/>
		</contour>
	</outline>
</glyph>
<glyph name="hard" format="2">
	<unicode hex="044A"/>
	<advance width="600"/>
	<outline>
		<contour>
			<point x="221" y="0" type="line"/>
			<point x="362" y="0" type="line" smooth="yes"/>
			<point x="474" y="0"/>
			<point x="544" y="49"/>
			<point x="544" y="146" type="curve" smooth="yes"/>
			<point x="544" y="241"/>
			<point x="474" y="289"/>
			<point x="362" y="289" type="curve" smooth="yes"/>
			<point x="266" y="289" type="line"/>
			<point x="266" y="480" type="line"/>
			<point x="38" y="480" type="line"/>
			<point x="38" y="442" type="line"/>
			<point x="221" y="442" type="line"/>
		</contour>
		<contour>
			<point x="266" y="38" type="line"/>
			<point x="266" y="251" type="line"/>
			<point x="352" y="251" type="line" smooth="yes"/>
			<point x="451" y="251"/>
			<point x="498" y="220"/>
			<point x="498" y="146" type="curve" smooth="yes"/>
			<point x="498" y="71"/>
			<point x="451" y="38"/>
			<point x="352" y="38" type="curve" smooth="yes"/>
		</contour>
	</outline>
	<anchor name="aboveLC" x="240" y="502"/>
</glyph>
<glyph name="yat" format="2">
	<unicode hex="0463"/>
	<advance width="600"/>
	<outline>
		<contour>
			<point x="211" y="0" type="line"/>
			<point x="353" y="0" type="line" smooth="yes"/>
			<point x="466" y="0"/>
			<point x="536" y="49"/>
			<point x="536" y="146" type="curve" smooth="yes"/>
			<point x="536" y="241"/>
			<point x="466" y="289"/>
			<point x="353" y="289" type="curve" smooth="yes"/>
			<point x="256" y="289" type="line"/>
			<point x="256" y="447" type="line"/>
			<point x="454" y="447" type="line"/>
			<point x="454" y="486" type="line"/>
			<point x="256" y="486" type="line"/>
			<point x="256" y="619" type="line"/>
			<point x="211" y="619" type="line"/>
			<point x="211" y="486" type="line"/>
			<point x="46" y="486" type="line"/>
			<point x="46" y="447" type="line"/>
			<point x="211" y="447" type="line"/>
		</contour>
		<contour>
			<point x="256" y="38" type="line"/>
			<point x="256" y="251" type="line"/>
			<point x="344" y="251" type="line" smooth="yes"/>
			<point x="442" y="251"/>
			<point x="490" y="220"/>
			<point x="490" y="146" type="curve" smooth="yes"/>
			<point x="490" y="71"/>
			<point x="442" y="38"/>
			<point x="344" y="38" type="curve" smooth="yes"/>
		</contour>
	</outline>
</glyph>
<glyph name="Gheup" format="2">
	<unicode hex="0490"/>
	<advance width="600"/>
	<outline>
		<contour>
			<point x="150" y="0" type="line"/>
			<point x="196" y="0" type="line"/>
			<point x="196" y="619" type="line"/>
			<point x="523" y="619" type="line"/>
			<point x="513" y="659" type="line"/>
			<point x="150" y="659" type="line"/>
		</contour>
		<contour>
			<point x="451" y="619" type="line"/>
			<point x="523" y="619" type="line"/>
			<point x="531" y="831" type="line"/>
			<point x="493" y="831" type="line"/>
			<point x="480" y="659" type="line"/>
			<point x="451" y="659" type="line"/>
		</contour>
	</outline>
</glyph>
<glyph name="ghestroke" format="2">
	<unicode hex="0493"/>
	<advance width="600"/>
	<outline>
		<contour>
			<point x="163" y="0" type="line"/>
			<point x="208" y="0" type="line"/>
			<point x="208" y="442" type="line"/>
			<point x="521" y="442" type="line"/>
			<point x="521" y="480" type="line"/>
			<point x="163" y="480" type="line"/>
		</contour>
		<contour>
			<point x="84" y="222" type="line"/>
			<point x="381" y="222" type="line"/>
			<point x="381" y="259" type="line"/>
			<point x="164" y="259" type="line"/>
			<point x="84" y="255" type="line"/>
		</contour>
	</outline>
</glyph>
<glyph name="Zedescender" format="2">
	<unicode hex="0498"/>
	<advance width="600"/>
	<outline>
		<contour>
			<point x="282" y="-188" type="line"/>
			<point x="321" y="-188" type="line"/>
			<point x="328" y="13" type="line"/>
			<point x="282" y="0" type="line"/>
		</contour>
		<component base="Ze" yOffset="-1"/>
	</outline>
</glyph>
<glyph name="esdescender" format="2">
	<unicode hex="04AB"/>
	<advance width="600"/>
	<outline>
		<contour>
			<point x="319" y="-172" type="line"/>
			<point x="355" y="-172" type="line"/>
			<point x="361" y="10" type="line"/>
			<point x="317" y="10" type="line"/>
		</contour>
		<component base="es"/>
	</outline>
</glyph>
<glyph name="v.sups" format="2">
	<unicode hex="1D5B"/>
	<advance width="600"/>
	<outline>
		<contour>
			<point x="275" y="406" type="line"/>
			<point x="323" y="406" type="line"/>
			<point x="443" y="723" type="line"/>
			<point x="402" y="723" type="line"/>
			<point x="332" y="533" type="line" smooth="yes"/>
			<point x="320" y="502"/>
			<point x="312" y="470"/>
			<point x="301" y="440" type="curve"/>
			<point x="299" y="440" type="line"/>
			<point x="288" y="470"/>
			<point x="278" y="502"/>
			<point x="266" y="533" type="curve" smooth="yes"/>
			<point x="195" y="723" type="line"/>
			<point x="153" y="723" type="line"/>
		</contour>
	</outline>
</glyph>
<glyph name="emdash" format="2">
	<unicode hex="2014"/>
	<advance width="600"/>
	<outline>
		<contour>
			<point x="0" y="226" type="line"/>
			<point x="600" y="226" type="line"/>
			<point x="600" y="275" type="line"/>
			<point x="0" y="275" type="line"/>
		</contour>
	</outline>
</glyph>
<glyph name="dagger" format="2">
	<unicode hex="2020"/>
	<advance width="600"/>
	<outline>
		<contour>
			<point x="279" y="-80" type="line"/>
			<point x="321" y="-80" type="line"/>
			<point x="318" y="522" type="line"/>
			<point x="450" y="520" type="line"/>
			<point x="450" y="562" type="line"/>
			<point x="318" y="559" type="line"/>
			<point x="321" y="712" type="line"/>
			<point x="279" y="712" type="line"/>
			<point x="282" y="559" type="line"/>
			<point x="150" y="562" type="line"/>
			<point x="150" y="520" type="line"/>
			<point x="282" y="522" type="line"/>
		</contour>
	</outline>
</glyph>
<glyph name="four.subs" format="2">
	<unicode hex="2084"/>
	<advance width="600"/>
	<outline>
		<contour>
			<point x="352" y="-172" type="line"/>
			<point x="388" y="-172" type="line"/>
			<point x="388" y="100" type="line"/>
			<point x="352" y="100" type="line"/>
		</contour>
		<contour>
			<point x="155" y="-58" type="line"/>
			<point x="446" y="-58" type="line"/>
			<point x="446" y="-26" type="line"/>
			<point x="202" y="-26" type="line"/>
			<point x="348" y="213" type="line"/>
			<point x="319" y="230" type="line"/>
			<point x="155" y="-37" type="line"/>
		</contour>
	</outline>
</glyph>
<glyph name="seven.subs" format="2">
	<unicode hex="2087"/>
	<advance width="600"/>
	<outline>
		<contour>
			<point x="258" y="-172" type="curve"/>
			<point x="298" y="-172" type="line"/>
			<point x="306" y="-33"/>
			<point x="338" y="65"/>
			<point x="440" y="195" type="curve"/>
			<point x="440" y="218" type="line"/>
			<point x="159" y="218" type="line"/>
			<point x="159" y="184" type="line"/>
			<point x="395" y="184" type="line"/>
			<point x="307" y="69"/>
			<point x="268" y="-29"/>
		</contour>
	</outline>
</glyph>
<glyph name="nine.subs" format="2">
	<unicode hex="2089"/>
	<advance width="600"/>
	<outline>
		<contour>
			<point x="265" y="-184" type="curve" smooth="yes"/>
			<point x="354" y="-184"/>
			<point x="437" y="-123"/>
			<point x="437" y="38" type="curve" smooth="yes"/>
			<point x="437" y="160"/>
			<point x="375" y="230"/>
			<point x="284" y="230" type="curve" smooth="yes"/>
			<point x="207" y="230"/>
			<point x="150" y="174"/>
			<point x="150" y="101" type="curve" smooth="yes"/>
			<point x="150" y="28"/>
			<point x="196" y="-25"/>
			<point x="282" y="-25" type="curve" smooth="yes"/>
			<point x="329" y="-25"/>
			<point x="372" y="-8"/>
			<point x="405" y="26" type="curve"/>
			<point x="405" y="64" type="line"/>
			<point x="364" y="18"/>
			<point x="329" y="7"/>
			<point x="287" y="7" type="curve" smooth="yes"/>
			<point x="222" y="7"/>
			<point x="188" y="48"/>
			<point x="188" y="101" type="curve" smooth="yes"/>
			<point x="188" y="155"/>
			<point x="227" y="197"/>
			<point x="283" y="197" type="curve" smooth="yes"/>
			<point x="354" y="197"/>
			<point x="399" y="139"/>
			<point x="399" y="38" type="curve" smooth="yes"/>
			<point x="399" y="-97"/>
			<point x="332" y="-151"/>
			<point x="266" y="-151" type="curve" smooth="yes"/>
			<point x="234" y="-151"/>
			<point x="208" y="-142"/>
			<point x="188" y="-129" type="curve"/>
			<point x="170" y="-160" type="line"/>
			<point x="194" y="-175"/>
			<point x="222" y="-184"/>
		</contour>
	</outline>
</glyph>
<glyph name="franc" format="2">
	<unicode hex="20A3"/>
	<advance width="600"/>
	<outline>
		<contour>
			<point x="160" y="0" type="line"/>
			<point x="205" y="0" type="line"/>
			<point x="205" y="319" type="line"/>
			<point x="478" y="319" type="line"/>
			<point x="478" y="358" type="line"/>
			<point x="205" y="358" type="line"/>
			<point x="205" y="600" type="line"/>
			<point x="531" y="600" type="line"/>
			<point x="531" y="639" type="line"/>
			<point x="160" y="639" type="line"/>
		</contour>
		<contour>
			<point x="78" y="140" type="line"/>
			<point x="376" y="140" type="line"/>
			<point x="376" y="176" type="line"/>
			<point x="162" y="176" type="line"/>
			<point x="78" y="173" type="line"/>
		</contour>
	</outline>
</glyph>
<glyph name="peseta" format="2">
	<unicode hex="20A7"/>
	<advance width="600"/>
	<outline>
		<contour>
			<point x="155" y="0" type="line"/>
			<point x="198" y="0" type="line"/>
			<point x="198" y="263" type="line"/>
			<point x="282" y="263" type="line" smooth="yes"/>
			<point x="409" y="263"/>
			<point x="498" y="326"/>
			<point x="498" y="457" type="curve" smooth="yes"/>
			<point x="498" y="589"/>
			<point x="409" y="639"/>
			<point x="282" y="639" type="curve" smooth="yes"/>
			<point x="155" y="639" type="line"/>
		</contour>
		<contour>
			<point x="198" y="299" type="line"/>
			<point x="198" y="604" type="line"/>
			<point x="270" y="604" type="line" smooth="yes"/>
			<point x="388" y="604"/>
			<point x="453" y="566"/>
			<point x="453" y="457" type="curve" smooth="yes"/>
			<point x="453" y="350"/>
			<point x="388" y="299"/>
			<point x="270" y="299" type="curve" smooth="yes"/>
		</contour>
		<contour>
			<point x="55" y="438" type="line"/>
			<point x="581" y="438" type="line"/>
			<point x="581" y="474" type="line"/>
			<point x="158" y="474" type="line"/>
			<point x="55" y="469" type="line"/>
		</contour>
	</outline>
</glyph>
<glyph name="arrowupdnbse" format="2">
	<unicode hex="21A8"/>
	<advance width="600"/>
	<outline>
		<contour>
			<point x="60" y="-118" type="line"/>
			<point x="540" y="-118" type="line"/>
			<point x="540" y="-80" type="line"/>
			<point x="60" y="-80" type="line"/>
		</contour>
		<component base="arrowupdn"/>
	</outline>
</glyph>
<glyph name="arrowdblleft" format="2">
	<unicode hex="21D0"/>
	<advance width="600"/>
	<outline>
		<contour>
			<point x="288" y="-14" type="line"/>
			<point x="314" y="13" type="line"/>
			<point x="65" y="250" type="line"/>
			<point x="65" y="254" type="line"/>
			<point x="314" y="491" type="line"/>
			<point x="288" y="518" type="line"/>
			<point x="19" y="254" type="line"/>
			<point x="19" y="250" type="line"/>
		</contour>
		<contour>
			<point x="139" y="332" type="line"/>
			<point x="570" y="332" type="line"/>
			<point x="570" y="367" type="line"/>
			<point x="139" y="367" type="line"/>
		</contour>
		<contour>
			<point x="139" y="137" type="line"/>
			<point x="570" y="137" type="line"/>
			<point x="570" y="172" type="line"/>
			<point x="139" y="172" type="line"/>
		</contour>
	</outline>
</glyph>
<glyph name="arrowdblup" format="2">
	<unicode hex="21D1"/>
	<advance width="600"/>
	<outline>
		<contour>
			<point x="61" y="231" type="line"/>
			<point x="298" y="481" type="line"/>
			<point x="302" y="481" type="line"/>
			<point x="539" y="231" type="line"/>
			<point x="566" y="257" type="line"/>
			<point x="302" y="526" type="line"/>
			<point x="298" y="526" type="line"/>
			<point x="34" y="257" type="line"/>
		</contour>
		<contour>
			<point x="380" y="-24" type="line"/>
			<point x="415" y="-24" type="line"/>
			<point x="415" y="407" type="line"/>
			<point x="380" y="407" type="line"/>
		</contour>
		<contour>
			<point x="185" y="-24" type="line"/>
			<point x="220" y="-24" type="line"/>
			<point x="220" y="407" type="line"/>
			<point x="185" y="407" type="line"/>
		</contour>
	</outline>
</glyph>
<glyph name="existential" format="2">
	<unicode hex="2203"/>
	<advance width="600"/>
	<outline>
		<contour>
			<point x="73" y="0" type="line"/>
			<point x="473" y="0" type="line"/>
			<point x="473" y="659" type="line"/>
			<point x="83" y="659" type="line"/>
			<point x="83" y="619" type="line"/>
			<point x="427" y="619" type="line"/>
			<point x="427" y="370" type="line"/>
			<point x="137" y="370" type="line"/>
			<point x="137" y="330" type="line"/>
			<point x="427" y="330" type="line"/>
			<point x="427" y="40" type="line"/>
			<point x="73" y="40" type="line"/>
		</contour>
	</outline>
</glyph>
<glyph name="floorright" format="2">
	<unicode hex="231F"/>
	<advance width="600"/>
	<outline>
		<contour>
			<point x="95" y="-58" type="line"/>
			<point x="360" y="-58" type="line"/>
			<point x="360" y="639" type="line"/>
			<point x="321" y="639" type="line"/>
			<point x="321" y="-30" type="line"/>
			<point x="95" y="-30" type="line"/>
		</contour>
	</outline>
</glyph>
<glyph name="lighthorzbxd" format="2">
	<unicode hex="2500"/>
	<advance width="600"/>
	<outline>
		<contour>
			<point x="-22" y="278" type="line"/>
			<point x="622" y="278" type="line"/>
			<point x="622" y="322" type="line"/>
			<point x="-22" y="322" type="line"/>
		</contour>
	</outline>
</glyph>
<glyph name="heavyquaddashhorzbxd" format="2">
	<unicode hex="2509"/>
	<advance width="600"/>
	<outline>
		<contour>
			<point x="469" y="257" type="line"/>
			<point x="581" y="257" type="line"/>
			<point x="581" y="343" type="line"/>
			<point x="469" y="343" type="line"/>
		</contour>
		<contour>
			<point x="319" y="257" type="line"/>
			<point x="431" y="257" type="line"/>
			<point x="431" y="343" type="line"/>
			<point x="319" y="343" type="line"/>
		</contour>
		<contour>
			<point x="169" y="257" type="line"/>
			<point x="281" y="257" type="line"/>
			<point x="281" y="343" type="line"/>
			<point x="169" y="343" type="line"/>
		</contour>
		<contour>
			<point x="19" y="257" type="line"/>
			<point x="131" y="257" type="line"/>
			<point x="131" y="343" type="line"/>
			<point x="19" y="343" type="line"/>
		</contour>
	</outline>
</glyph>
<glyph name="lightdnrightbxd" format="2">
	<unicode hex="250C"/>
	<advance width="600"/>
	<outline>
		<contour>
			<point x="622" y="278" type="line"/>
			<point x="622" y="322" type="line"/>
			<point x="278" y="322" type="line"/>
			<point x="278" y="-400" type="line"/>
			<point x="322" y="-400" type="line"/>
			<point x="322" y="278" type="line"/>
		</contour>
	</outline>
</glyph>
<glyph name="dnlightrightheavybxd" format="2">
	<unicode hex="250D"/>
	<advance width="600"/>
	<outline>
		<contour>
			<point x="622" y="257" type="line"/>
			<point x="622" y="343" type="line"/>
			<point x="278" y="343" type="line"/>
			<point x="278" y="-400" type="line"/>
			<point x="322" y="-400" type="line"/>
			<point x="322" y="257" type="line"/>
		</contour>
	</outline>
</glyph>
<glyph name="upheavyrightlightbxd" format="2">
	<unicode hex="2516"/>
	<advance width="600"/>
	<outline>
		<contour>
			<point x="257" y="278" type="line"/>
			<point x="622" y="278" type="line"/>
			<point x="622" y="322" type="line"/>
			<point x="343" y="322" type="line"/>
			<point x="343" y="1000" type="line"/>
			<point x="257" y="1000" type="line"/>
		</contour>
	</outline>
</glyph>
<glyph name="lightvertleftbxd" format="2">
	<unicode hex="2524"/>
	<advance width="600"/>
	<outline>
		<contour>
			<point x="322" y="-400" type="line"/>
			<point x="322" y="1000" type="line"/>
			<point x="278" y="1000" type="line"/>
			<point x="278" y="322" type="line"/>
			<point x="-22" y="322" type="line"/>
			<point x="-22" y="278" type="line"/>
			<point x="278" y="278" type="line"/>
			<point x="278" y="-400" type="line"/>
		</contour>
	</outline>
</glyph>
<glyph name="uplightleftdnheavybxd" format="2">
	<unicode hex="252A"/>
	<advance width="600"/>
	<outline>
		<contour>
			<point x="343" y="-400" type="line"/>
			<point x="343" y="343" type="line"/>
			<point x="322" y="343" type="line"/>
			<point x="322" y="1000" type="line"/>
			<point x="278" y="1000" type="line"/>
			<point x="278" y="343" type="line"/>
			<point x="-22" y="343" type="line"/>
			<point x="-22" y="257" type="line"/>
			<point x="257" y="257" type="line"/>
			<point x="257" y="-400" type="line"/>
		</contour>
	</outline>
</glyph>
<glyph name="dnlighthorzheavybxd" format="2">
	<unicode hex="252F"/>
	<advance width="600"/>
	<outline>
		<contour>
			<point x="622" y="257" type="line"/>
			<point x="622" y="343" type="line"/>
			<point x="-22" y="343" type="line"/>
			<point x="-22" y="257" type="line"/>
			<point x="278" y="257" type="line"/>
			<point x="278" y="-400" type="line"/>
			<point x="322" y="-400" type="line"/>
			<point x="322" y="257" type="line"/>
		</contour>
	</outline>
</glyph>
<glyph name="upheavyhorzlightbxd" format="2">
	<unicode hex="2538"/>
	<advance width="600"/>
	<outline>
		<contour>
			<point x="622" y="278" type="line"/>
			<point x="622" y="322" type="line"/>
			<point x="343" y="322" type="line"/>
			<point x="343" y="1000" type="line"/>
			<point x="257" y="1000" type="line"/>
			<point x="257" y="322" type="line"/>
			<point x="-22" y="322" type="line"/>
			<point x="-22" y="278" type="line"/>
		</contour>
	</outline>
</glyph>
<glyph name="leftheavyrightvertlightbxd" format="2">
	<unicode hex="253D"/>
	<advance width="600"/>
	<outline>
		<contour>
			<point x="622" y="278" type="line"/>
			<point x="622" y="322" type="line"/>
			<point x="322" y="322" type="line"/>
			<point x="322" y="1000" type="line"/>
			<point x="278" y="1000" type="line"/>
			<point x="278" y="343" type="line"/>
			<point x="-22" y="343" type="line"/>
			<point x="-22" y="257" type="line"/>
			<point x="278" y="257" type="line"/>
			<point x="278" y="-400" type="line"/>
			<point x="322" y="-400" type="line"/>
			<point x="322" y="278" type="line"/>
		</contour>
	</outline>
</glyph>
<glyph name="dblhorzbxd" format="2">
	<unicode hex="2550"/>
	<advance width="600"/>
	<outline>
		<contour>
			<point x="-22" y="322" type="line"/>
			<point x="622" y="322" type="line"/>
			<point x="622" y="364" type="line"/>
			<point x="-22" y="364" type="line"/>
		</contour>
		<contour>
			<point x="-22" y="236" type="line"/>
			<point x="622" y="236" type="line"/>
			<point x="622" y="278" type="line"/>
			<point x="-22" y="278" type="line"/>
		</contour>
	</outline>
</glyph>
<glyph name="dbldnrightbxd" format="2">
	<unicode hex="2554"/>
	<advance width="600"/>
	<outline>
		<contour>
			<point x="622" y="322" type="line"/>
			<point x="622" y="364" type="line"/>
			<point x="236" y="364" type="line"/>
			<point x="236" y="-400" type="line"/>
			<point x="278" y="-400" type="line"/>
			<point x="278" y="322" type="line"/>
		</contour>
		<contour>
			<point x="622" y="236" type="line"/>
			<point x="622" y="278" type="line"/>
			<point x="322" y="278" type="line"/>
			<point x="322" y="-400" type="line"/>
			<point x="364" y="-400" type="line"/>
			<point x="364" y="236" type="line"/>
		</contour>
	</outline>
</glyph>
<glyph name="dblupleftbxd" format="2">
	<unicode hex="255D"/>
	<advance width="600"/>
	<outline>
		<contour>
			<point x="278" y="322" type="line"/>
			<point x="278" y="1000" type="line"/>
			<point x="236" y="1000" type="line"/>
			<point x="236" y="364" type="line"/>
			<point x="-22" y="364" type="line"/>
			<point x="-22" y="322" type="line"/>
		</contour>
		<contour>
			<point x="364" y="236" type="line"/>
			<point x="364" y="1000" type="line"/>
			<point x="322" y="1000" type="line"/>
			<point x="322" y="278" type="line"/>
			<point x="-22" y="278" type="line"/>
			<point x="-22" y="236" type="line"/>
		</contour>
	</outline>
</glyph>
<glyph name="dndblhorzsngbxd" format="2">
	<unicode hex="2565"/>
	<advance width="600"/>
	<outline>
		<contour>
			<point x="322" y="-400" type="line"/>
			<point x="364" y="-400" type="line"/>
			<point x="364" y="278" type="line"/>
			<point x="622" y="278" type="line"/>
			<point x="622" y="322" type="line"/>
			<point x="-22" y="322" type="line"/>
			<point x="-22" y="278" type="line"/>
			<point x="236" y="278" type="line"/>
			<point x="236" y="-400" type="line"/>
			<point x="278" y="-400" type="line"/>
			<point x="278" y="278" type="line"/>
			<point x="322" y="278" type="line"/>
		</contour>
	</outline>
</glyph>
<glyph name="vertsnghorzdblbxd" format="2">
	<unicode hex="256A"/>
	<advance width="600"/>
	<outline>
		<contour>
			<point x="622" y="236" type="line"/>
			<point x="622" y="278" type="line"/>
			<point x="322" y="278" type="line"/>
			<point x="322" y="322" type="line"/>
			<point x="622" y="322" type="line"/>
			<point x="622" y="364" type="line"/>
			<point x="322" y="364" type="line"/>
			<point x="322" y="1000" type="line"/>
			<point x="278" y="1000" type="line"/>
			<point x="278" y="364" type="line"/>
			<point x="-22" y="364" type="line"/>
			<point x="-22" y="322" type="line"/>
			<point x="278" y="322" type="line"/>
			<point x="278" y="278" type="line"/>
			<point x="-22" y="278" type="line"/>
			<point x="-22" y="236" type="line"/>
			<point x="278" y="236" type="line"/>
			<point x="278" y="-400" type="line"/>
			<point x="322" y="-400" type="line"/>
			<point x="322" y="236" type="line"/>
		</contour>
	</outline>
</glyph>
<glyph name="lightarcdnrightbxd" format="2">
	<unicode hex="256D"/>
	<advance width="600"/>
	<outline>
		<contour>
			<point x="278" y="-400" type="line"/>
			<point x="322" y="-400" type="line"/>
			<point x="322" y="0" type="line" smooth="yes"/>
			<point x="322" y="154"/>
			<point x="446" y="278"/>
			<point x="600" y="278" type="curve" smooth="yes"/>
			<point x="622" y="278" type="line"/>
			<point x="622" y="322" type="line"/>
			<point x="600" y="322" type="line" smooth="yes"/>
			<point x="422" y="322"/>
			<point x="278" y="178"/>
			<point x="278" y="0" type="curve" smooth="yes"/>
		</contour>
	</outline>
</glyph>
<glyph name="lightdiagupleftdnrightbxd" format="2">
	<unicode hex="2572"/>
	<advance width="600"/>
	<outline>
		<contour>
			<point x="24" y="900" type="line"/>
			<point x="0" y="900" type="line"/>
			<point x="0" y="852" type="line"/>
			<point x="576" y="-300" type="line"/>
			<point x="600" y="-300" type="line"/>
			<point x="600" y="-252" type="line"/>
		</contour>
	</outline>
</glyph>
<glyph name="lightdnbxd" format="2">
	<unicode hex="2577"/>
	<advance width="600"/>
	<outline>
		<contour>
			<point x="278" y="-400" type="line"/>
			<point x="322" y="-400" type="line"/>
			<point x="322" y="322" type="line"/>
			<point x="278" y="322" type="line"/>
		</contour>
	</outline>
</glyph>
<glyph name="heavyrightbxd" format="2">
	<unicode hex="257A"/>
	<advance width="600"/>
	<outline>
		<contour>
			<point x="278" y="257" type="line"/>
			<point x="622" y="257" type="line"/>
			<point x="622" y="343" type="line"/>
			<point x="278" y="343" type="line"/>
		</contour>
	</outline>
</glyph>
<glyph name="heavyuplightdnbxd" format="2">
	<unicode hex="257F"/>
	<advance width="600"/>
	<outline>
		<contour>
			<point x="343" y="278" type="line"/>
			<point x="343" y="1000" type="line"/>
			<point x="257" y="1000" type="line"/>
			<point x="257" y="278" type="line"/>
			<point x="278" y="278" type="line"/>
			<point x="278" y="-400" type="line"/>
			<point x="322" y="-400" type="line"/>
			<point x="322" y="278" type="line"/>
		</contour>
	</outline>
</glyph>
<glyph name="triangleleftblack" format="2">
	<unicode hex="25C0"/>
	<advance width="600"/>
	<outline>
		<contour>
			<point x="539" y="110" type="line"/>
			<point x="541" y="110" type="line"/>
			<point x="541" y="588" type="line"/>
			<point x="539" y="588" type="line"/>
			<point x="39" y="350" type="line"/>
			<point x="39" y="348" type="line"/>
		</contour>
	</outline>
</glyph>
<glyph name="trianglesmallleftblack" format="2">
	<unicode hex="25C2"/>
	<advance width="600"/>
	<outline>
		<contour>
			<point x="422" y="110" type="line"/>
			<point x="424" y="110" type="line"/>
			<point x="424" y="415" type="line"/>
			<point x="422" y="415" type="line"/>
			<point x="147" y="264" type="line"/>
			<point x="147" y="262" type="line"/>
		</contour>
	</outline>
</glyph>
<glyph name="trianglesmallleftwhite" format="2">
	<unicode hex="25C3"/>
	<advance width="600"/>
	<outline>
		<contour>
			<point x="431" y="95" type="line"/>
			<point x="433" y="95" type="line"/>
			<point x="433" y="431" type="line"/>
			<point x="431" y="431" type="line"/>
			<point x="134" y="264" type="line"/>
			<point x="134" y="262" type="line"/>
		</contour>
		<contour>
			<point x="405" y="143" type="line"/>
			<point x="189" y="263" type="line"/>
			<point x="405" y="383" type="line"/>
		</contour>
	</outline>
</glyph>
<glyph name="lozenge" format="2">
	<unicode hex="25CA"/>
	<advance width="600"/>
	<outline>
		<contour>
			<point x="275" y="-10" type="line"/>
			<point x="325" y="-10" type="line"/>
			<point x="491" y="330" type="line"/>
			<point x="325" y="669" type="line"/>
			<point x="275" y="669" type="line"/>
			<point x="109" y="330" type="line"/>
		</contour>
		<contour>
			<point x="298" y="28" type="line"/>
			<point x="230" y="167" type="line"/>
			<point x="154" y="330" type="line"/>
			<point x="230" y="490" type="line"/>
			<point x="298" y="631" type="line"/>
			<point x="302" y="631" type="line"/>
			<point x="370" y="490" type="line"/>
			<point x="446" y="330" type="line"/>
			<point x="370" y="167" type="line"/>
			<point x="302" y="28" type="line"/>
		</contour>
	</outline>
</glyph>
<glyph name="invbullet" format="2">
	<unicode hex="25D8"/>
	<advance width="600"/>
	<outline>
		<contour>
			<point x="158" y="120" type="line"/>
			<point x="442" y="120" type="line"/>
			<point x="442" y="404" type="line"/>
			<point x="158" y="404" type="line"/>
		</contour>
		<contour>
			<point x="300" y="132" type="curve" smooth="yes"/>
			<point x="225" y="132"/>
			<point x="170" y="187"/>
			<point x="170" y="262" type="curve" smooth="yes"/>
			<point x="170" y="337"/>
			<point x="225" y="392"/>
			<point x="300" y="392" type="curve" smooth="yes"/>
			<point x="375" y="392"/>
			<point x="430" y="337"/>
			<point x="430" y="262" type="curve" smooth="yes"/>
			<point x="430" y="187"/>
			<point x="375" y="132"/>
		</contour>
	</outline>
</glyph>
<glyph name="bulletwhite" format="2">
	<unicode hex="25E6"/>
	<advance width="600"/>
	<outline>
		<contour>
			<point x="300" y="114" type="curve" smooth="yes"/>
			<point x="387" y="114"/>
			<point x="449" y="178"/>
			<point x="449" y="262" type="curve" smooth="yes"/>
			<point x="449" y="346"/>
			<point x="387" y="410"/>
			<point x="300" y="410" type="curve" smooth="yes"/>
			<point x="213" y="410"/>
			<point x="151" y="346"/>
			<point x="151" y="262" type="curve" smooth="yes"/>
			<point x="151" y="178"/>
			<point x="213" y="114"/>
		</contour>
		<contour>
			<point x="300" y="147" type="curve" smooth="yes"/>
			<point x="235" y="147"/>
			<point x="190" y="195"/>
			<point x="190" y="262" type="curve" smooth="yes"/>
			<point x="190" y="329"/>
			<point x="235" y="377"/>
			<point x="300" y="377" type="curve" smooth="yes"/>
			<point x="365" y="377"/>
			<point x="410" y="329"/>
			<point x="410" y="262" type="curve" smooth="yes"/>
			<point x="410" y="195"/>
			<point x="365" y="147"/>
		</contour>
	</outline>
</glyph>
<glyph name="heartblackheavy" format="2">
	<unicode hex="2764"/>
	<advance width="600"/>
	<outline>
		<contour>
			<point x="302" y="1" type="line"/>
			<point x="399" y="192"/>
			<point x="679" y="166"/>
			<point x="679" y="459" type="curve" smooth="yes"/>
			<point x="679" y="590"/>
			<point x="596" y="665"/>
			<point x="478" y="665" type="curve" smooth="yes"/>
			<point x="387" y="665"/>
			<point x="328" y="629"/>
			<point x="302" y="527" type="curve"/>
			<point x="298" y="527" type="line"/>
			<point x="272" y="629"/>
			<point x="213" y="665"/>
			<point x="122" y="665" type="curve" smooth="yes"/>
			<point x="4" y="665"/>
			<point x="-79" y="590"/>
			<point x="-79" y="459" type="curve" smooth="yes"/>
			<point x="-79" y="166"/>
			<point x="201" y="192"/>
			<point x="298" y="1" type="curve"/>
		</contour>
	</outline>
</glyph>
<glyph name="brackhalfbotright" format="2">
	<unicode hex="2E25"/>
	<advance width="600"/>
	<outline>
		<contour>
			<point x="95" y="-152" type="line"/>
			<point x="360" y="-152" type="line"/>
			<point x="360" y="278" type="line"/>
			<point x="321" y="278" type="line"/>
			<point x="321" y="-123" type="line"/>
			<point x="95" y="-123" type="line"/>
		</contour>
	</outline>
</glyph>
<glyph name="brevecmb.cyrcap" format="2">
	<advance width="600"/>
	<outline>
		<contour>
			<point x="300" y="710" type="curve" smooth="yes"/>
			<point x="402" y="710"/>
			<point x="431" y="776"/>
			<point x="436" y="835" type="curve"/>
			<point x="394" y="838" type="line"/>
			<point x="392" y="787"/>
			<point x="368" y="740"/>
			<point x="300" y="740" type="curve" smooth="yes"/>
			<point x="232" y="740"/>
			<point x="208" y="787"/>
			<point x="206" y="838" type="curve"/>
			<point x="164" y="835" type="line"/>
			<point x="169" y="776"/>
			<point x="198" y="710"/>
		</contour>
	</outline>
	<anchor name="_aboveUC" x="300" y="679"/>
</glyph>
<glyph name="candrabinducmb.cap" format="2">
	<advance width="600"/>
	<outline>
		<contour>
			<point x="300" y="710" type="curve" smooth="yes"/>
			<point x="390" y="710"/>
			<point x="430" y="775"/>
			<point x="438" y="834" type="curve"/>
			<point x="406" y="839" type="line"/>
			<point x="398" y="788"/>
			<point x="366" y="742"/>
			<point x="300" y="742" type="curve" smooth="yes"/>
			<point x="234" y="742"/>
			<point x="202" y="788"/>
			<point x="194" y="839" type="curve"/>
			<point x="162" y="834" type="line"/>
			<point x="170" y="775"/>
			<point x="210" y="710"/>
		</contour>
		<contour>
			<point x="300" y="823" type="curve" smooth="yes"/>
			<point x="321" y="823"/>
			<point x="339" y="839"/>
			<point x="339" y="864" type="curve" smooth="yes"/>
			<point x="339" y="886"/>
			<point x="321" y="902"/>
			<point x="300" y="902" type="curve" smooth="yes"/>
			<point x="279" y="902"/>
			<point x="261" y="886"/>
			<point x="261" y="864" type="curve" smooth="yes"/>
			<point x="261" y="839"/>
			<point x="279" y="823"/>
		</contour>
	</outline>
	<anchor name="_aboveUC" x="300" y="679"/>
</glyph>
<glyph name="caroncmb.cap" format="2">
	<advance width="600"/>
	<outline>
		<contour>
			<point x="278" y="709" type="line"/>
			<point x="322" y="709" type="line"/>
			<point x="435" y="823" type="line"/>
			<point x="415" y="841" type="line"/>
			<point x="302" y="743" type="line"/>
			<point x="298" y="743" type="line"/>
			<point x="185" y="841" type="line"/>
			<point x="165" y="823" type="line"/>
		</contour>
	</outline>
	<anchor name="_aboveUC" x="300" y="679"/>
</glyph>
<glyph name="carondotaccentcmb.cap" format="2">
	<advance width="600"/>
	<outline>
		<contour>
			<point x="300" y="823" type="curve" smooth="yes"/>
			<point x="321" y="823"/>
			<point x="339" y="839"/>
			<point x="339" y="864" type="curve" smooth="yes"/>
			<point x="339" y="886"/>
			<point x="321" y="902"/>
			<point x="300" y="902" type="curve" smooth="yes"/>
			<point x="279" y="902"/>
			<point x="261" y="886"/>
			<point x="261" y="864" type="curve" smooth="yes"/>
			<point x="261" y="839"/>
			<point x="279" y="823"/>
		</contour>
		<contour>
			<point x="278" y="709" type="line"/>
			<point x="322" y="709" type="line"/>
			<point x="436" y="822" type="line"/>
			<point x="418" y="841" type="line"/>
			<point x="302" y="743" type="line"/>
			<point x="298" y="743" type="line"/>
			<point x="182" y="841" type="line"/>
			<point x="164" y="822" type="line"/>
		</contour>
	</outline>
	<anchor name="_aboveUC" x="300" y="679"/>
</glyph>
<glyph name="circumflexcmb.cap" format="2">
	<advance width="600"/>
	<outline>
		<contour>
			<point x="185" y="707" type="line"/>
			<point x="298" y="805" type="line"/>
			<point x="302" y="805" type="line"/>
			<point x="415" y="707" type="line"/>
			<point x="435" y="726" type="line"/>
			<point x="322" y="839" type="line"/>
			<point x="278" y="839" type="line"/>
			<point x="165" y="726" type="line"/>
		</contour>
	</outline>
	<anchor name="_aboveUC" x="300" y="679"/>
</glyph>
<glyph name="dotlessi.a" format="2">
	<advance width="600"/>
	<outline>
		<contour>
			<point x="318" y="0" type="line"/>
			<point x="362" y="0" type="line"/>
			<point x="362" y="480" type="line"/>
			<point x="135" y="480" type="line"/>
			<point x="135" y="442" type="line"/>
			<point x="318" y="442" type="line"/>
		</contour>
		<contour>
			<point x="110" y="0" type="line"/>
			<point x="564" y="0" type="line"/>
			<point x="564" y="39" type="line"/>
			<point x="110" y="39" type="line"/>
		</contour>
	</outline>
	<anchor name="aboveLC" x="329" y="502"/>
	<anchor name="baseLC" x="334" y="0"/>
	<anchor name="belowLC" x="329" y="-20"/>
	<anchor name="ogonekLC" x="339" y="0"/>
</glyph>
<glyph name="istroke.d" format="2">
	<advance width="600"/>
	<outline>
		<contour>
			<point x="144" y="230" type="line"/>
			<point x="567" y="230" type="line"/>
			<point x="567" y="268" type="line"/>
			<point x="338" y="268" type="line"/>
			<point x="144" y="263" type="line"/>
		</contour>
		<component base="dotlessi"/>
	</outline>
	<anchor name="aboveLC" x="349" y="502"/>
	<anchor name="belowLC" x="349" y="-20"/>
</glyph>
<glyph name="l.a" format="2">
	<advance width="600"/>
	<outline>
		<contour>
			<point x="318" y="0" type="line"/>
			<point x="362" y="0" type="line"/>
			<point x="362" y="719" type="line"/>
			<point x="135" y="719" type="line"/>
			<point x="135" y="681" type="line"/>
			<point x="318" y="681" type="line"/>
		</contour>
		<contour>
			<point x="110" y="0" type="line"/>
			<point x="564" y="0" type="line"/>
			<point x="564" y="39" type="line"/>
			<point x="110" y="39" type="line"/>
		</contour>
	</outline>
	<anchor name="aboveUC" x="338" y="739"/>
	<anchor name="baseLC" x="334" y="0"/>
	<anchor name="belowLC" x="329" y="-20"/>
	<anchor name="center" x="341" y="396"/>
</glyph>
<glyph name="lenistildecmb" format="2">
	<advance width="600"/>
	<outline>
		<contour>
			<point x="369" y="708" type="curve" smooth="yes"/>
			<point x="414" y="708"/>
			<point x="429" y="747"/>
			<point x="431" y="783" type="curve"/>
			<point x="401" y="786" type="line"/>
			<point x="397" y="756"/>
			<point x="390" y="741"/>
			<point x="368" y="741" type="curve" smooth="yes"/>
			<point x="324" y="741"/>
			<point x="292" y="783"/>
			<point x="231" y="783" type="curve" smooth="yes"/>
			<point x="186" y="783"/>
			<point x="171" y="744"/>
			<point x="169" y="708" type="curve"/>
			<point x="199" y="705" type="line"/>
			<point x="203" y="735"/>
			<point x="210" y="750"/>
			<point x="232" y="750" type="curve" smooth="yes"/>
			<point x="276" y="750"/>
			<point x="309" y="708"/>
		</contour>
		<contour>
			<point x="278" y="562" type="line"/>
			<point x="316" y="572"/>
			<point x="357" y="592"/>
			<point x="357" y="628" type="curve" smooth="yes"/>
			<point x="357" y="669"/>
			<point x="311" y="685"/>
			<point x="252" y="687" type="curve"/>
			<point x="248" y="659" type="line"/>
			<point x="296" y="658"/>
			<point x="319" y="645"/>
			<point x="319" y="623" type="curve" smooth="yes"/>
			<point x="319" y="607"/>
			<point x="299" y="594"/>
			<point x="270" y="587" type="curve"/>
		</contour>
	</outline>
	<anchor name="_aboveLC" x="300" y="502"/>
</glyph>
<glyph name="nine.cap" format="2">
	<advance width="600"/>
	<outline>
		<contour>
			<point x="252" y="-12" type="curve" smooth="yes"/>
			<point x="389" y="-12"/>
			<point x="515" y="85"/>
			<point x="515" y="359" type="curve" smooth="yes"/>
			<point x="515" y="560"/>
			<point x="422" y="671"/>
			<point x="278" y="671" type="curve" smooth="yes"/>
			<point x="170" y="671"/>
			<point x="75" y="586"/>
			<point x="75" y="465" type="curve" smooth="yes"/>
			<point x="75" y="334"/>
			<point x="152" y="264"/>
			<point x="275" y="264" type="curve" smooth="yes"/>
			<point x="351" y="264"/>
			<point x="418" y="300"/>
			<point x="475" y="357" type="curve"/>
			<point x="474" y="404" type="line"/>
			<point x="410" y="329"/>
			<point x="338" y="301"/>
			<point x="280" y="301" type="curve" smooth="yes"/>
			<point x="173" y="301"/>
			<point x="119" y="362"/>
			<point x="119" y="465" type="curve" smooth="yes"/>
			<point x="119" y="560"/>
			<point x="186" y="633"/>
			<point x="277" y="633" type="curve" smooth="yes"/>
			<point x="410" y="633"/>
			<point x="471" y="521"/>
			<point x="471" y="359" type="curve" smooth="yes"/>
			<point x="471" y="112"/>
			<point x="368" y="27"/>
			<point x="252" y="27" type="curve" smooth="yes"/>
			<point x="199" y="27"/>
			<point x="152" y="45"/>
			<point x="115" y="80" type="curve"/>
			<point x="88" y="50" type="line"/>
			<point x="130" y="13"/>
			<point x="181" y="-12"/>
		</contour>
	</outline>
</glyph>
<glyph name="one.ao" format="2">
	<advance width="600"/>
	<outline>
		<contour>
			<point x="108" y="0" type="line"/>
			<point x="523" y="0" type="line"/>
			<point x="523" y="39" type="line"/>
			<point x="343" y="39" type="line"/>
			<point x="343" y="571" type="line"/>
			<point x="309" y="571" type="line"/>
			<point x="156" y="441" type="line"/>
			<point x="181" y="413" type="line"/>
			<point x="320" y="522" type="line"/>
			<point x="299" y="530" type="line"/>
			<point x="299" y="39" type="line"/>
			<point x="108" y="39" type="line"/>
		</contour>
	</outline>
</glyph>
<glyph name="three.onum" format="2">
	<advance width="600"/>
	<outline>
		<contour>
			<point x="292" y="-83" type="curve" smooth="yes"/>
			<point x="414" y="-83"/>
			<point x="511" y="-13"/>
			<point x="511" y="99" type="curve" smooth="yes"/>
			<point x="511" y="190"/>
			<point x="431" y="249"/>
			<point x="342" y="265" type="curve"/>
			<point x="342" y="269" type="line"/>
			<point x="424" y="293"/>
			<point x="487" y="344"/>
			<point x="487" y="428" type="curve" smooth="yes"/>
			<point x="487" y="526"/>
			<point x="400" y="583"/>
			<point x="290" y="583" type="curve" smooth="yes"/>
			<point x="208" y="583"/>
			<point x="141" y="548"/>
			<point x="93" y="505" type="curve"/>
			<point x="120" y="474" type="line"/>
			<point x="160" y="514"/>
			<point x="223" y="544"/>
			<point x="289" y="544" type="curve" smooth="yes"/>
			<point x="379" y="544"/>
			<point x="441" y="497"/>
			<point x="441" y="425" type="curve" smooth="yes"/>
			<point x="441" y="348"/>
			<point x="377" y="285"/>
			<point x="210" y="285" type="curve"/>
			<point x="210" y="246" type="line"/>
			<point x="388" y="246"/>
			<point x="465" y="186"/>
			<point x="465" y="98" type="curve" smooth="yes"/>
			<point x="465" y="12"/>
			<point x="390" y="-44"/>
			<point x="292" y="-44" type="curve" smooth="yes"/>
			<point x="196" y="-44"/>
			<point x="134" y="-4"/>
			<point x="92" y="38" type="curve"/>
			<point x="67" y="7" type="line"/>
			<point x="111" y="-36"/>
			<point x="181" y="-83"/>
		</contour>
	</outline>
</glyph>
